<?xml version="1.0" encoding="UTF-8"?> <svg xmlns="http://www.w3.org/2000/svg" xmlns:xlink="http://www.w3.org/1999/xlink" xmlns:xodm="http://www.corel.com/coreldraw/odm/2003" xml:space="preserve" width="1144px" height="891px" version="1.0" style="shape-rendering:geometricPrecision; text-rendering:geometricPrecision; image-rendering:optimizeQuality; fill-rule:evenodd; clip-rule:evenodd" viewBox="0 0 1144 890.96"> <defs> <style type="text/css"> .fil0 {fill:#000545} .fil3 {fill:#FEFEFE;fill-rule:nonzero} .fil2 {fill:#730002;fill-rule:nonzero} .fil1 {fill:#BF0006;fill-rule:nonzero} .fil4 {fill:#FEFEFE;fill-rule:nonzero} </style> </defs> <g id="Camada_x0020_1"> <metadata id="CorelCorpID_0Corel-Layer"></metadata> <g id="_2399960183936"> <path class="fil0" d="M258.76 286.92c2.84,3.37 -19.2,10.35 -16.21,13.58l4.43 0.21c0.13,0.13 -4.19,0.03 -4.06,0.17 8.66,9.31 7.95,17.13 17.78,25.2 8.81,7.24 10.07,20.28 2.82,29.07 -7.23,8.78 -20.24,10.04 -29.03,2.82 -4.06,-3.34 -8.05,-6.77 -11.96,-10.31 -19.06,-1.18 -39.83,-3.03 -58.67,0.8 -1.04,0.32 -2.07,0.64 -3.12,0.95 -1,0.3 -2,0.57 -3.02,0.81 -4.75,1.49 -10.03,0.8 -14.42,-2.2 -6.64,-4.53 -9.12,-12.88 -6.03,-20.3 0.66,-1.57 1.5,-3.17 2.32,-4.66 0.88,-1.6 1.77,-3.15 2.79,-4.66 0.28,-0.43 0.54,-0.78 0.86,-1.17 1.14,-1.42 2.33,-2.82 3.55,-4.17 -11.53,-6.21 -21,-16.57 -28.32,-27.14 -3.18,-4.6 -6.11,-9.44 -8.68,-14.4 -0.84,-1.61 -1.66,-3.26 -2.39,-4.92 -0.31,-0.71 -0.61,-1.42 -0.87,-2.15 -0.55,-1.52 -0.88,-3.05 -1,-4.58 -0.29,-3.04 0.28,-6.09 1.59,-8.81 -6.09,-6.96 -10.91,-15.18 -14.66,-23.34 -2.34,-5.06 -4.38,-10.33 -6.06,-15.65 -0.54,-1.73 -1.06,-3.49 -1.49,-5.25 -0.19,-0.75 -0.36,-1.5 -0.49,-2.26 -0.13,-0.74 -0.22,-1.48 -0.26,-2.23 -0.08,-1.37 0,-2.74 0.25,-4.09 0.46,-2.44 1.43,-4.66 2.78,-6.58 -4.67,-7.79 -7.93,-16.56 -10.2,-25.07 -1.44,-5.4 -2.56,-10.95 -3.3,-16.49 -0.25,-1.81 -0.46,-3.63 -0.58,-5.45 -0.06,-0.77 -0.09,-1.54 -0.1,-2.31 0,-0.75 0.04,-1.49 0.12,-2.23 0.15,-1.34 0.46,-2.65 0.92,-3.91 0.89,-2.45 2.3,-4.57 4.06,-6.28 -3.41,-8.7 -5.15,-18.18 -5.92,-27.2 -0.48,-5.61 -0.62,-11.31 -0.39,-16.94 0.08,-1.84 0.19,-3.69 0.38,-5.52 0.08,-0.77 0.18,-1.54 0.31,-2.31 0.27,-1.53 0.72,-2.98 1.34,-4.32 5.31,-11.97 20.04,-11.08 30.47,-8.88 0.06,-2.73 0.29,-5.44 0.69,-8.12 2.3,-15.18 9.74,-28.75 20.16,-39.87 3.35,-3.58 7.02,-6.93 10.92,-9.9 1.24,-0.94 2.51,-1.86 3.81,-2.71 0.52,-0.34 1.05,-0.67 1.6,-0.98 0.48,-0.28 0.98,-0.54 1.49,-0.77 9.91,-4.57 20.7,1.53 23.34,10.76 6.7,17.09 11.28,35.53 8.53,53.99 -0.14,0.96 -0.3,1.92 -0.49,2.87 4.16,-0.01 8.37,0.35 12.57,1.02 4.26,0.29 8.3,2.26 11.32,5.69 3.38,3.84 4.77,8.71 4.05,13.48 -0.6,10.11 -1.75,20.3 -4.71,29.88 3.39,3.12 5.27,7.31 5.38,11.73 1.16,9.86 1.76,19.89 0.56,29.65 3.77,2.49 6.28,6.24 7.14,10.51 2.85,9.62 5.17,19.5 5.6,29.43 4.22,1.78 7.38,5.07 8.98,9.16 7.75,15.53 14.06,32.09 11.98,49.81 -1.27,10.82 28.67,18.21 21.54,26.54z"></path> <path class="fil0" d="M1001.83 338.92c11.84,2.06 23.28,5.88 34.13,11.56 2.13,1.12 4.21,2.3 6.22,3.55 4.88,-3.26 9.97,-6.24 15.27,-8.86 9.8,-4.85 20.21,-8.05 31.23,-8.05 14.12,0 27.37,5.3 37.71,14.91 10.88,10.12 17.37,23.71 17.37,38.66 0,35.59 -40.21,60.53 -55.17,98.59 15.89,28.42 55.35,82.49 55.35,115.57 0,64.61 -55.47,108.46 -117.85,108.46 -20.27,0 -28.49,-2.83 -46.02,-13 -1.83,-1.06 -3.6,-2.17 -5.33,-3.32 -4.69,3.39 -9.6,6.51 -14.72,9.28 -10.15,5.5 -21.04,9.13 -32.68,9.13 -14.12,0 -27.37,22.83 -37.71,13.22 -2.3,-2.14 -4.4,-4.43 -6.28,-6.86 -9.2,6.62 -19.39,11.68 -30.36,15.16 -15.41,4.89 -31.72,6.61 -47.84,6.61 -16.11,0 -32.43,-1.72 -47.84,-6.61 -13.67,-4.33 -26.09,-11.16 -36.89,-20.37 -17.74,14.88 -39.64,21.92 -63.21,21.92 -17.38,0 -33.88,-5.04 -47.66,-15.57 -12.02,9.33 -26.12,13.04 -41.12,13.04 -20.31,0 -37.39,0 -57.67,0 -9.56,0 -18.97,-1.35 -27.73,-4.95 -12.21,5.04 -25.5,7.48 -39.38,7.48 -17.38,0 -33.87,-5.04 -47.65,-15.57 -5.73,4.45 -12.44,7.88 -19.79,10.15l-0.54 0.16 -0.55 0.16c-6.6,1.84 -13.41,2.57 -20.25,2.57 -8.7,0 -17.24,-1.65 -25.35,-4.82 -1.25,-0.49 -2.49,-1.01 -3.72,-1.55 -18.89,8.69 -85.64,-20.28 -104.49,-28.68 -9.47,4.51 -20.11,6.92 -31.59,6.92 -13.34,0 -26.26,-2.12 -37.53,-9.82l-0.54 -0.37 -0.54 -0.39c-0.78,-0.57 -1.55,-1.15 -2.31,-1.75 -10.03,8.11 -22.34,12.33 -35.35,12.33 -9.53,0 -18.88,-1.81 -27.53,-5.88 -0.54,-0.25 -1.08,-0.51 -1.61,-0.77 -9.43,4.09 -19.44,6.65 -29.84,6.65 -30.03,0 -54.53,-20.27 -54.53,-51.34l0 -21.58 15.96 -12.67c4.36,-3.46 9.01,-7.85 11.85,-12.7 2.34,-4.01 4.41,-9.13 6.21,-14.34 -19.91,-29.71 -12.87,-105.69 26.54,-115.14l6.73 -1.35 8.58 -30.29c2.19,-7.74 5.26,-19.22 5.26,-27.33 0,-1.8 -1.84,-5.01 -2.74,-6.43l-6.59 -10.36 0 -13c0,-35.79 30.6,-52.07 62.12,-52.07 10.14,0 19.45,2.55 27.95,6.85 1.66,-0.74 3.35,-1.43 5.08,-2.07l0.36 -0.14 0.36 -0.12c8.44,-2.98 17.24,-4.52 26.2,-4.52 5.66,0 11.22,0.71 16.53,2.19l-4.82 -14 12.63 -17.7c1.99,-2.79 2.74,-5.4 2.74,-8.84 0,-5.55 -2.17,-14.23 -3.5,-19.6 -2.14,-8.6 -4.65,-17.72 -8.12,-25.89 -1.2,-2.82 -2.96,-7.06 -4.69,-9.64 -0.9,-1.17 -2.04,-2.63 -3.08,-3.59 -0.99,-0.87 -2.03,-1.83 -3.09,-2.66l-0.54 -0.4 -0.76 -0.6c-11.25,-8.9 -18.17,-21.85 -18.17,-36.39 0,-10.11 3.34,-19.63 9.15,-27.82 0,-0.18 0,-0.36 0,-0.53 0,-15.25 -2.76,-29.9 -8.59,-43.99 -3.58,-8.66 -9.28,-19.91 -16.77,-25.93l-15.75 -12.67 0 -20.93c0,-34.01 28.41,-51.89 59.77,-51.89 11.42,0 22.08,2.53 31.93,6.91 9.47,-4.5 20.12,-6.91 31.63,-6.91 14.02,0 27.58,2.44 39.06,11.06 9.82,-7.33 21.64,-11.06 34.07,-11.06 9.03,0 17.92,1.58 26.32,4.92 1.7,0.68 3.37,1.42 5.02,2.21 9.7,-4.35 19.98,-7.13 30.77,-7.13 6.25,0 12.26,0.88 17.86,2.55l0.82 -0.21c6.28,-1.6 12.77,-2.34 19.24,-2.34 10.58,0 20.37,2.19 29.25,6.17 8.76,-3.99 18.21,-6.17 28.11,-6.17 10.52,0 20.86,1.67 30.36,6.11 2.55,-1.19 5.22,-2.23 7.97,-3.1l1.15 -0.37 1.17 -0.3c6.87,-1.76 14.03,-2.34 21.11,-2.34 11.63,0 22.73,3.19 32.95,8.54 17.61,-6.52 37.2,-8.54 55.83,-8.54 28.66,0 57.1,6.83 78.61,26.81 12.42,11.54 20.93,25.31 26.44,40.3l7.78 19.4 7.79 -34.44c0,-35.79 30.59,-52.07 62.11,-52.07 10.14,0 19.46,2.55 27.95,6.85 1.66,-0.74 3.36,-1.43 5.08,-2.07l0.36 -0.14 0.36 -0.12c8.44,-2.98 17.25,-4.52 26.2,-4.52 13.31,0 26.06,3.92 36.34,12.58 9.21,7.77 15.33,18.2 18.28,29.82l7.82 24.5c7.97,24.94 12.55,42.87 3.42,78.78 0.94,0.87 1.92,1.76 2.92,2.57 11.47,8.78 18.56,21.9 18.56,36.6 0,10.12 -3.33,19.72 -9.21,27.84 0,0.19 0,0.38 0,0.57 0,14.95 3.33,29.32 9.05,43.1 3.6,8.67 9.69,21.23 17.05,27.43l0.66 14.38 3.19 16.46c0,2.04 -0.1,4.03 -0.3,5.96z"></path> <path class="fil1" d="M1122.32 723.36c-67.82,12.26 -135.9,22.19 -204.1,29.86 2,23.09 3.98,46.19 5.98,69.28 1.97,23.11 3.98,46.2 5.95,69.3 70.62,-7.93 141.07,-18.22 211.27,-30.9 -25.59,-18.88 -50.8,-38.07 -75.67,-57.54 19.25,-26.5 38.1,-53.16 56.57,-80z"></path> <path class="fil2" d="M1043.77 805.16c-37.11,29.56 -74.97,58.45 -113.62,86.64 -2.44,-28.43 -4.88,-56.86 -7.34,-85.28 40.22,0.32 80.55,-0.11 120.96,-1.36z"></path> <path class="fil1" d="M32.71 723.36c67.82,12.24 135.89,22.19 204.09,29.86 -1.99,23.09 -3.98,46.19 -5.97,69.28 -1.99,23.11 -3.98,46.2 -5.97,69.3 -70.59,-7.93 -141.04,-18.22 -211.25,-30.9 25.58,-18.88 50.8,-38.07 75.66,-57.57 -19.25,-26.47 -38.11,-53.13 -56.56,-79.97z"></path> <path class="fil2" d="M111.26 805.16c37.1,29.56 74.97,58.45 113.6,86.64 2.45,-28.43 4.89,-56.87 7.35,-85.28 -40.23,0.32 -80.55,-0.11 -120.95,-1.36z"></path> <path class="fil1" d="M1028.14 670.42c5.25,45.24 10.53,90.46 15.77,135.69 -309.55,46.88 -623.17,46.89 -932.74,0 5.25,-45.21 10.53,-90.45 15.78,-135.68 299.09,45.29 602.1,45.29 901.19,-0.01z"></path> <path class="fil3" d="M182.69 762.1l0.79 0.02 1.42 0.18 0.72 0.01 0.8 -0.05 0.73 -0.07 0.66 -0.15 0.74 -0.15 0.74 -0.22 0.68 -0.32 1.28 -0.63 0.69 -0.39 0.6 -0.33 0.62 -0.48 0.54 -0.49 0.52 -0.33 0.56 -0.01 0.43 0.38 0.41 0.61 0.32 0.6 0.89 1.15 0.49 0.54 0.4 0.61 0.46 0.78 0.94 1.4 0.62 0.79 0.35 0.37 0.63 0.72 0.26 0.43 0.48 0.62 0.99 1 0.49 0.55 0.41 0.53 0.49 0.54 0.5 0.46 2.09 1.79 0.67 0.4 0.59 0.4 0.68 0.32 0.74 0.42 1.13 0.54 0.69 0.25 0.84 0.26 1 0.29 0.78 0.18 0.78 0.1 0.72 0.01 0.81 -0.05 0.56 -0.01 1.11 0.06 0.97 -0.12 0.73 -0.06 1.47 -0.29 1.01 -0.36 0.97 -0.75 0.46 -1.06 -0.08 -1.29 -0.58 -1.11 -0.86 -0.75 -1.03 -0.05 -2.04 0.3 -1.45 0.13 -1.98 -0.09 -0.8 -0.02 -0.7 -0.17 -0.77 -0.26 -0.91 -0.35 -0.83 -0.35 -0.67 -0.41 -0.58 -0.47 -0.65 -0.48 -0.45 -0.3 -0.56 -0.55 -0.5 -0.46 -0.98 -1.08 -0.43 -0.46 -0.48 -0.62 -1.24 -1.52 -1.85 -2.39 -0.9 -1.07 -1.31 -1.68 -0.49 -0.55 -0.41 -0.53 -0.4 -0.61 -0.49 -0.54 -0.33 -0.52 0 -0.64 0.24 -0.61 0.51 -0.89 0.58 -0.8 0.42 -0.75 0.51 -0.89 0.35 -0.84 0.33 -0.75 0.32 -0.6 0.32 -0.68 0.53 -0.97 0.54 -1.13 0.37 -0.99 0.32 -0.68 0.42 -0.74 0.24 -0.61 0.22 -0.53 0.33 -0.68 0.24 -0.61 0.49 -1.37 0.24 -0.61 0.65 -1.36 0.37 -0.99 0.39 -1.22 0.37 -1 0.32 -0.67 0.32 -0.6 0.49 -1.38 0.24 -0.61 0.17 -0.69 0.34 -0.76 0.14 -0.46 0.33 -0.76 0.25 -0.68 0.32 -0.68 0.36 -0.91 0.37 -1 0.76 -1.58 0.49 -1.37 0.36 -0.91 0.49 -1.38 0.32 -0.6 0.49 -1.37 0.32 -0.6 0.32 -0.68 0.36 -0.91 0.37 -0.99 0.4 -0.67 0.44 -0.9 0.19 -0.93 -0.15 -0.66 -0.49 -0.54 -0.59 -0.4 -1.37 -0.49 -0.78 -0.18 -0.72 -0.01 -0.65 0.07 -0.74 0.23 -0.61 0.4 -0.93 1 -0.55 0.57 -0.53 0.41 -1.22 0.8 -0.54 0.49 -1.84 1.21 -0.6 0.32 -0.75 0.3 -0.5 0.18 -1.27 0.55 -0.77 0.39 -0.76 0.3 -1.34 0.47 -0.99 0.27 -1.08 0.34 -0.49 0.1 -0.83 0.21 -0.74 0.23 -1.24 0.32 -1 0.27 -0.5 0.17 -1.07 0.27 -2.4 0.65 -0.75 0.22 -0.67 0.24 -0.68 0.31 -0.59 0.32 -0.68 0.32 -2.84 2.19 -0.47 0.58 -0.79 1.18 -0.65 1.35 -0.24 0.61 -0.25 0.69 -0.18 1.41 -0.02 0.8 0.08 0.65 0.29 1.47 0.23 0.67 0.25 0.59 0.8 1.22 0.41 0.53 0.49 0.54 0.58 0.48 0.59 0.39 1.35 0.65 1 0.29 0.93 0.28 0.78 0.1 0.97 -0.12 0.88 -0.61 0.47 -1.13 -0.27 -1.07 -0.63 -0.65 -0.75 -0.41 -0.59 -0.39 -0.58 -0.48 -0.48 -0.62 -0.22 -0.75 -0.06 -0.8 0.01 -0.72 0.1 -0.79 0.17 -0.69 0.65 -1.36 0.95 -1.15 0.7 -0.47 0.88 -0.61 0.85 -0.45 0.69 -0.39 0.61 -0.4 0.67 -0.24 0.75 -0.22 1.35 -0.55 0.66 -0.23 0.74 -0.15 0.83 -0.21 0.67 -0.24 1.25 -0.47 1.36 -0.63 0.77 -0.38 1.01 -0.43 0.93 -0.36 0.69 -0.39 1.21 -0.73 1.22 -0.8 1.08 -0.98 0.43 -0.26 0.15 0.09 -0.14 0.47 -0.23 0.6 -0.33 0.68 -0.32 0.6 -0.25 0.69 -0.32 0.67 -0.25 0.69 -0.35 0.91 -0.37 1 -0.26 0.76 -0.35 0.91 -0.37 1 -0.33 0.67 -0.24 0.69 -0.26 0.77 -0.36 0.91 -0.27 0.92 -0.25 0.69 -0.33 0.68 -0.24 0.68 -0.33 0.68 -0.24 0.61 -0.25 0.69 -0.32 0.67 -0.24 0.61 -0.32 0.68 -0.17 0.7 -0.24 0.61 -0.27 0.84 -0.31 0.6 -0.23 0.53 -0.33 0.68 -0.23 0.6 -0.33 0.68 -0.25 0.69 -0.23 0.61 -0.27 0.84 -0.24 0.61 -0.23 0.53 -0.33 0.76 -0.22 0.45 -0.34 0.75 -0.31 0.6 -0.33 0.68 -0.33 0.76 -0.29 0.36 -0.34 0.75 -0.37 0.44 -0.49 0.09 -1.03 -0.69 -1.93 -1.2 -0.59 -0.32 -1.45 -0.58 -0.61 -0.24 -0.68 -0.25 -1.5 -0.19 -0.69 -0.17 -0.71 -0.08 -0.8 -0.03 -0.72 0.07 -0.66 0.16 -1.48 0.29 -0.67 0.23 -1.2 0.65 -0.61 0.4 -0.68 0.39 -1.09 0.98 -0.4 0.67 -0.32 0.6 -0.32 0.67 -0.25 0.69 -0.34 1.39 -0.1 0.79 0.13 1.45 0.24 0.67 0.14 0.74 0.32 0.68 0.32 0.6 0.98 1.08 0.51 0.39 0.59 0.39 0.66 0.49 0.67 0.32 0.53 0.23 0.68 0.32 0.69 0.25 0.77 0.18 0.79 0.1zm-1.98 -8.32l0.26 -0.76 0.58 -0.81 0.98 -0.75 1.19 -0.57 0.98 -0.19 0.8 0.02 0.93 0.2 0.92 0.28 0.83 0.42 0.81 0.5 0.75 0.42 0.67 0.4 0.49 0.47 0.25 0.59 -0.17 0.69 -0.56 0.65 -0.55 0.57 -0.54 0.49 -0.61 0.4 -0.93 0.36 -1.17 0.41 -1.05 0.11 -0.74 0.14 -0.71 -0.09 -0.69 -0.17 -0.69 -0.24 -0.68 -0.33 -0.59 -0.39 -0.49 -0.55 -0.22 -0.74 -0.07 -0.73 0.02 -0.8zm59.31 -5.2l0.47 -0.66 0.29 -0.36 0.4 -0.75 0.43 -0.91 0.35 -0.92 0.17 -0.77 0.2 -1.02 0.11 -0.94 0 -0.72 -0.07 -0.73 -0.15 -0.73 -0.28 -0.99 -0.38 -0.84 -0.41 -0.61 -0.99 -1.07 -0.43 -0.38 -0.6 -0.38 -0.67 -0.4 -0.68 -0.32 -0.99 -0.36 -1.23 -0.38 -1.01 -0.28 -1.73 -0.21 -1.04 0.04 -1.46 0.15 -1.71 0.35 -1.08 0.35 -0.75 0.24 -0.83 0.3 -0.84 0.38 -0.77 0.46 -0.86 0.46 -0.77 0.47 -0.69 0.48 -1.32 1.04 -1.33 1.12 -0.54 0.49 -0.46 0.51 -0.39 0.67 -0.65 0.72 -0.57 0.81 -0.48 0.66 -0.5 0.9 -0.42 0.83 -0.32 0.68 -0.24 0.69 -0.32 0.67 -0.24 0.69 -0.31 0.61 -0.72 2.06 -0.09 0.71 -0.16 0.7 -0.18 1.5 -0.01 2.15 0.07 0.72 0.08 0.65 0.08 0.73 0.15 0.74 0.16 0.65 0.23 0.75 0.25 0.59 0.32 0.67 0.41 0.61 0.48 0.69 0.27 0.43 0.48 0.62 0.5 0.54 0.59 0.38 1.17 0.86 0.6 0.39 0.67 0.4 0.68 0.32 0.61 0.23 2.79 0.65 0.71 0.08 0.88 0.03 1.03 0.04 1.67 0.03 0.97 -0.12 1.04 -0.04 0.74 -0.15 0.65 -0.16 2.07 -0.63 1.36 -0.64 0.78 -0.55 0.86 -0.53 1.21 -0.82 0.54 -0.49 0.62 -0.57 0.28 -0.28 0.62 -0.57 0.54 -0.49 0.1 -0.08 -0.12 0.55 -0.08 0.71 0.07 0.8 0.08 0.73 0.17 0.65 0.24 0.74 0.82 1.21 0.5 0.61 0.51 0.46 0.66 0.47 0.45 0.28 0.75 0.4 0.77 0.25 0.79 0.08 1.95 0.37 0.8 0.01 0.95 0.02 1.04 -0.04 0.74 -0.16 0.65 -0.17 0.74 -0.16 0.99 -0.29 0.9 -0.3 0.76 -0.4 0.85 -0.46 0.93 -0.46 1.2 -0.82 0.53 -0.43 0.6 -0.41 0.59 -0.25 0.87 0.01 0.93 0.26 0.69 0.24 0.7 0.15 0.78 0.17 0.87 0.01 1.04 -0.05 0.8 0.01 1.45 -0.16 0.67 -0.25 1.59 -0.7 0.91 -0.38 0.61 -0.41 1.92 -1.55 0.7 -0.64 0.63 -0.65 0.28 -0.36 1.01 -1.25 0.38 -0.52 0.46 -0.58 1.15 -1.79 0.5 -0.9 0.11 -1.03 -0.54 -0.93 -0.93 -0.26 -0.86 0.62 -0.57 0.82 -0.47 0.66 -0.48 0.83 -0.57 0.81 -0.46 0.59 -0.46 0.51 -0.46 0.58 -0.45 0.51 -2.19 1.76 -0.59 0.33 -0.92 0.38 -0.75 0.32 -0.74 0.24 -0.89 0.06 -0.72 0.08 -1.02 -0.11 -1.02 -0.19 -0.44 -0.37 0.21 -0.45 0.54 -0.58 0.37 -0.52 0.93 -1.17 0.37 -0.44 0.46 -0.59 0.47 -0.66 0.39 -0.68 0.38 -0.6 0.79 -1.34 0.29 -0.45 0.47 -0.67 0.4 -0.75 0.21 -0.46 0.32 -0.76 0.31 -0.68 0.32 -0.76 0.13 -0.47 0.25 -0.77 0.62 -1.37 0.24 -0.69 0.15 -0.7 0.24 -0.69 0.22 -0.61 0.24 -0.69 0.24 -0.77 0.16 -0.7 0.22 -0.62 0.31 -1.4 0 -0.72 -0.25 -0.66 -0.72 -0.72 -1.13 -0.52 -1.25 -0.29 -1.34 -0.07 -0.98 0.21 -0.54 0.5 -0.26 1.01 -0.19 0.94 -0.16 0.78 -0.16 0.7 -0.07 0.71 -0.16 0.7 -0.15 0.62 -0.31 0.68 -0.23 0.69 -0.31 0.61 -0.47 1.38 -0.22 0.61 -0.24 0.7 -0.73 1.59 -0.49 0.9 -0.4 0.76 -0.21 0.45 -0.4 0.75 -0.31 0.61 -0.31 0.68 -0.38 0.6 -0.47 0.59 -1.13 1.63 -0.52 0.42 -0.79 -0.09 -1.1 -0.2 -0.96 0.06 -0.68 0.4 -0.45 0.51 -0.32 0.68 0.05 1.05 0.28 1.06 -0.01 0.88 -0.38 0.51 -0.77 0.56 -1.11 0.67 -1.17 0.51 -1.24 0.35 -1.28 0.1 -1.02 -0.19 -0.6 -0.31 -0.42 -0.52 -0.33 -0.67 -0.13 -0.97 -0.05 -1.05 0.09 -0.78 0.14 -0.63 0.17 -0.77 0.18 -0.94 0.27 -1.01 0.24 -0.77 0.68 -1.84 0.32 -0.76 0.35 -1 0.45 -1.22 0.35 -1 0.73 -1.6 0.34 -0.99 0.32 -0.69 0.42 -0.99 0.53 -1.14 0.42 -0.98 0.32 -0.69 0.3 -0.6 0.31 -0.68 0.31 -0.61 0.39 -0.67 0.49 -0.83 0.41 -0.91 0.24 -0.69 0.08 -0.71 -0.35 -0.51 -0.59 -0.39 -0.61 -0.3 -0.77 -0.25 -1.49 -0.16 -0.74 0.16 -0.74 0.24 -0.52 0.34 -0.38 0.6 -0.31 0.68 -0.31 0.61 -0.23 0.69 -0.31 0.6 -0.31 0.68 -0.41 0.84 -0.39 0.67 -0.31 0.68 -0.41 0.84 -0.47 1.38 -0.32 0.68 -0.3 0.61 -0.38 0.59 -0.31 0.61 -0.31 0.68 -0.47 1.39 -0.42 0.91 -0.34 0.92 -0.31 0.68 -0.23 0.69 -0.15 0.62 -0.31 0.69 -0.17 0.48 -0.11 0.14 -0.39 0.59 -0.46 0.58 -0.92 1.01 -0.55 0.58 -0.46 0.5 -1.07 0.99 -1.22 0.89 -0.61 0.41 -0.6 0.33 -1.2 0.73 -1.33 0.48 -1.41 0.4 -0.65 0.16 -0.74 0.15 -0.73 0.07 -2.09 0.16 -0.71 -0.01 -0.79 -0.09 -0.7 -0.16 -0.69 -0.24 -0.54 -0.15 -0.68 -0.32 -0.76 -0.33 -1.17 -0.93 -0.41 -0.53 -0.41 -0.61 -0.64 -1.35 -0.3 -1.47 -0.09 -0.65 0.02 -0.79 0.16 -1.34 0.17 -0.78 0.08 -0.71 0.22 -0.53 0.43 -0.27 0.56 0.07 2.06 0.72 0.7 0.16 1.41 0.25 1.4 0.32 0.7 0.09 0.72 0 0.96 -0.04 0.88 0.02 0.8 -0.06 0.72 0 0.74 -0.15 0.81 -0.14 0.75 -0.24 0.5 -0.18 0.84 -0.38 0.49 -0.1 0.76 -0.31 0.59 -0.33 1.22 -0.81 1.07 -0.99 0.46 -0.5 0.39 -0.6zm-7.83 -10.09l0.81 -0.07 0.7 0.16 0.69 0.24 0.67 0.4 0.57 0.55 0.41 0.61 0.23 0.74 -0.01 0.8 -0.17 0.7 -0.25 0.76 -0.64 1.37 -0.47 0.66 -0.39 0.59 -0.46 0.5 -0.55 0.58 -0.6 0.4 -0.62 0.49 -0.61 0.41 -0.59 0.33 -0.83 0.3 -0.5 0.1 -0.82 0.22 -0.73 0.07 -0.8 0.07 -2.2 -0.26 -0.78 -0.17 -1.56 -0.27 -1 -0.35 -0.35 -0.44 0.15 -0.55 0.31 -0.6 0.39 -0.67 0.43 -0.91 0.58 -0.8 0.47 -0.67 0.65 -0.72 0.65 -0.8 0.62 -0.56 0.72 -0.64 0.79 -0.62 1.21 -0.82 0.68 -0.32 1 -0.36 1.15 -0.34 1.05 -0.11zm87.12 21.51l0.38 -0.68 -0.01 -0.79 -0.56 -0.85 -0.93 -0.24 -0.75 0.33 -1.86 3.02 -0.45 0.59 -0.37 0.6 -1.43 1.79 -0.2 0.45 -0.53 0.59 -0.45 0.6 -0.89 1.03 -1.05 1.02 -1.04 0.94 -0.6 0.51 -1.17 0.69 -0.75 0.33 -0.97 0.23 -1.18 -0.19 -0.75 -0.46 -0.34 -0.67 0.01 -1.03 0.19 -1.18 0.35 -1.32 0.34 -1.16 0.24 -0.85 0.23 -0.78 0.32 -0.92 0.44 -1.32 0.22 -0.69 0.32 -0.93 0.12 -0.47 0.23 -0.77 0.6 -1.38 0.21 -0.62 0.3 -0.69 0.45 -1.39 0.3 -0.69 0.22 -0.69 0.29 -0.61 -0.01 -0.72 -0.28 -0.5 -0.59 -0.45 -1.21 -0.75 -0.7 -0.22 -0.7 -0.14 -0.72 0.09 -0.83 0.33 -0.53 0.67 -0.31 0.76 -0.39 0.84 -0.62 1.54 -0.39 0.84 -0.3 0.69 -0.3 0.61 -0.38 0.68 -0.2 0.54 -0.38 0.68 -1.13 1.97 -0.36 0.44 -0.64 0.98 -0.56 0.82 -1.35 1.79 -0.44 0.52 -0.98 1.1 -0.44 0.52 -0.52 0.51 -0.45 0.52 -0.52 0.51 -0.6 0.42 -0.51 0.43 -1.19 0.85 -1.32 0.52 -0.73 0.17 -1.03 -0.01 -0.94 -0.24 -0.68 -0.38 -0.43 -0.52 -0.34 -0.66 -0.26 -0.66 -0.17 -0.74 -0.01 -0.79 0.2 -2.21 0.43 -2.11 0.31 -0.77 0.66 -2.09 0.37 -0.6 0.38 -0.68 0.6 -1.38 0.45 -0.6 1.12 -1.8 0.45 -0.6 0.44 -0.52 1.05 -1.02 0.44 -0.51 0.53 -0.51 0.6 -0.59 0.35 -0.28 0.68 -0.5 0.59 -0.42 0.59 -0.35 0.67 -0.34 0.59 -0.34 0.83 -0.4 0.82 -0.33 2.04 -0.53 1.05 -0.15 0.79 0 0.56 -0.03 1.58 0.14 0.77 0.23 0.77 0.3 1.31 0.44 0.62 0.21 0.68 0.38 0.61 0.37 0.53 0.29 0.59 0.45 0.68 0.46 0.59 0.53 0.61 0.29 0.64 -0.02 0.91 -0.47 0.96 -0.87 0.41 -1.08 -0.08 -0.88 -0.42 -0.6 -0.51 -0.52 -0.52 -0.44 -0.51 -0.53 -3.03 -1.7 -0.85 -0.31 -0.69 -0.22 -1.71 -0.47 -1.8 -0.33 -1.57 -0.22 -0.95 -0.08 -0.72 0.01 -1.98 -0.01 -0.81 0.16 -0.97 0.15 -0.98 0.24 -0.82 0.32 -0.91 0.39 -0.98 0.31 -0.74 0.26 -0.59 0.34 -0.67 0.34 -1.18 0.77 -0.92 0.55 -0.78 0.65 -1.19 0.85 -0.6 0.58 -0.35 0.29 -1.13 1.09 -0.52 0.51 -0.89 1.03 -0.45 0.6 -0.45 0.52 -0.45 0.59 -2.23 3.62 -0.3 0.69 -0.37 0.6 -0.3 0.69 -0.33 1 -0.32 0.93 -0.31 0.77 -0.24 0.93 -0.17 1.02 -0.15 0.78 -0.09 1.03 -0.04 1.27 0.07 1.04 0.01 0.79 0.14 1.05 0.37 1.23 0.39 0.9 0.34 0.67 0.35 0.59 1.02 1.05 0.51 0.44 0.61 0.29 0.69 0.3 0.93 0.32 0.93 0.25 0.78 0.15 1.44 -0.03 1.05 -0.15 1.29 -0.28 1.23 -0.45 0.92 -0.47 0.67 -0.34 0.59 -0.34 0.59 -0.43 0.52 -0.43 0.59 -0.42 0.45 -0.52 0.52 -0.51 0.44 -0.52 0.53 -0.51 0.88 -1.03 0.91 -1.19 0.44 -0.52 0.22 0.18 -0.16 0.94 -0.17 1.02 -0.07 0.79 -0.02 1.03 0.16 0.97 0.17 0.73 0.47 0.92 0.49 0.83 0.51 0.53 0.51 0.44 0.69 0.3 0.93 0.32 0.94 0.17 0.79 0.07 0.72 -0.1 0.73 -0.17 0.98 -0.31 0.91 -0.32 0.74 -0.33 0.67 -0.34 2.38 -1.69 0.52 -0.43 0.52 -0.51 0.96 -1.03 0.53 -0.51 0.53 -0.59 0.52 -0.51 0.45 -0.59 0.37 -0.61 0.45 -0.59 0.45 -0.52 0.9 -1.19 0.37 -0.61 0.38 -0.68 0.37 -0.6 0.45 -0.52 0.46 -0.75 0.2 -0.38 0.46 -0.76zm20.37 -10.62l0.71 -0.02 0.71 0.13 0.69 0.3 0.65 0.76 0.41 0.83 0.1 0.8 -0.14 0.71 -0.44 1.47 -0.13 0.71 -0.43 1.39 -0.4 1.01 -0.34 1.24 -0.41 1.24 -0.4 1 -0.3 0.69 -0.39 1 -0.42 1.24 -0.42 1.32 -0.35 1.32 -0.92 2.55 -0.32 1.01 -0.14 0.78 -0.24 1.01 -0.14 1.74 0.11 0.65 0.1 0.72 0.19 0.65 0.26 0.74 0.42 0.59 0.45 0.43 0.6 0.45 0.61 0.28 0.69 0.3 0.62 0.2 0.71 0.14 0.71 0.06 0.79 -0.02 0.64 -0.03 0.72 -0.1 0.73 -0.18 0.65 -0.18 1.32 -0.53 0.66 -0.35 0.67 -0.42 0.51 -0.44 1.18 -0.86 0.52 -0.51 0.95 -0.88 0.52 -0.51 0.6 -0.67 0.53 -0.59 0.35 -0.37 0.53 -0.68 0.89 -1.2 0.45 -0.68 0.2 -0.46 0.9 -1.36 0.27 -0.45 0.53 -0.67 0.37 -0.61 0.45 -0.6 0.36 -0.61 0.38 -0.68 0.36 -0.61 0.3 -0.69 0.06 -0.79 -0.57 -0.84 -1.01 -0.32 -0.75 0.42 -0.44 0.6 -0.29 0.69 -0.29 0.61 -0.37 0.69 -0.74 1.21 -0.45 0.68 -0.53 0.67 -0.27 0.38 -0.53 0.67 -0.81 1.13 -0.53 0.67 -0.43 0.52 -0.61 0.59 -0.44 0.52 -0.52 0.59 -0.44 0.53 -1.11 0.94 -0.67 0.42 -0.58 0.35 -0.67 0.35 -0.73 0.26 -0.73 0.18 -0.71 -0.14 -0.52 -0.44 -0.26 -0.65 0.11 -1.43 0.14 -0.7 0.64 -2.09 0.21 -0.62 0.29 -0.7 0.22 -0.69 0.2 -0.54 0.21 -0.7 0.41 -1.08 0.42 -1.24 0.42 -1.32 0.32 -1 0.29 -0.7 0.4 -1 0.41 -1.16 0.32 -1 0.3 -0.77 0.2 -0.47 0.22 -0.77 0.21 -0.7 0.13 -0.63 0.06 -0.71 0.14 -0.7 0.12 -1.5 -0.09 -0.96 -0.16 -0.97 -0.18 -0.73 -0.26 -0.66 -0.35 -0.66 -0.35 -0.58 -0.51 -0.6 -0.68 -0.45 -0.68 -0.38 -0.86 -0.22 -1.25 -0.26 -1.81 -0.15 -0.96 0.09 -1.05 0.15 -0.73 0.18 -0.65 0.19 -0.66 0.34 -0.66 0.26 -0.66 0.35 -1.69 1.14 -1.1 0.94 -0.59 0.43 -1.1 0.79 -0.59 0.43 -1.04 1.03 -0.44 0.52 -0.52 0.51 -0.34 0.37 -0.07 -0.08 0.11 -0.47 0.22 -0.7 0.29 -0.69 0.22 -0.7 0.28 -0.61 0.22 -0.7 0.29 -0.69 0.2 -0.54 0.22 -0.78 -0.08 -0.96 -0.72 -0.85 -1.16 -0.49 -1.25 -0.26 -1.27 0.06 -1.07 0.47 -0.62 0.74 -0.43 1.4 -0.29 0.69 -0.21 0.62 -0.59 1.38 -0.21 0.7 -0.32 0.93 -0.32 1.01 -0.29 0.69 -0.22 0.7 -0.28 0.61 -0.22 0.7 -0.29 0.69 -0.22 0.7 -0.2 0.62 -0.51 1.39 -0.4 1 -0.31 0.93 -0.3 0.69 -0.21 0.7 -0.3 0.69 -0.13 0.7 -0.21 0.62 -0.43 1.4 -0.29 0.61 -0.29 0.69 -0.22 0.7 -0.21 0.62 -0.21 0.7 -0.29 0.69 -0.29 0.61 -0.22 0.7 -0.29 0.69 -0.22 0.7 -0.31 0.93 -0.32 1.01 -0.22 0.77 0.01 0.88 0.42 0.75 0.6 0.36 1.02 0.24 1.18 0.18 1.03 0 0.72 -0.02 0.73 -0.18 0.5 -0.36 0.29 -0.61 0.21 -0.62 0.13 -0.71 0.3 -0.77 0.23 -0.85 0.32 -1.01 0.29 -0.69 0.32 -1.01 0.41 -1.16 0.4 -1 0.65 -2.09 0.39 -1 0.42 -1.16 0.31 -1.01 1.08 -2.54 1.1 -1.82 0.53 -0.59 0.89 -1.2 1.03 -1.03 0.6 -0.51 1.04 -1.03 0.59 -0.51 0.59 -0.43 0.59 -0.35 1.33 -0.77 0.59 -0.42 0.67 -0.43 0.59 -0.35 0.57 -0.27 0.66 -0.27 0.9 -0.24zm24.97 5.34l-0.87 1.05 -0.52 0.6 -0.34 0.37 -0.53 0.76 -0.46 0.84 -0.54 0.84 -0.72 1.22 -0.28 0.69 -0.85 1.85 -0.29 0.69 -0.29 0.78 -0.11 0.46 -0.3 0.78 -0.2 0.7 -0.23 1.01 -0.15 0.95 -0.13 0.78 -0.05 0.71 0.02 0.72 -0.07 1.03 0.01 0.95 0.03 0.72 0.19 0.73 0.38 1.29 0.19 0.73 0.27 0.66 0.35 0.66 0.67 0.68 0.66 0.76 0.6 0.52 0.53 0.35 0.69 0.37 0.62 0.2 0.7 0.21 0.71 0.13 0.62 0.12 0.72 -0.02 0.8 -0.11 1.85 -0.26 0.8 -0.18 0.66 -0.28 0.74 -0.42 0.84 -0.58 0.75 -0.5 1.76 -1.3 0.51 -0.45 0.94 -1.04 0.52 -0.52 0.43 -0.53 0.8 -1.21 0.44 -0.6 0.43 -0.53 0.16 0.09 -0.11 1.5 0.09 2.15 0.11 0.65 0.19 0.72 0.27 0.66 0.71 1.16 0.52 0.59 0.44 0.43 0.61 0.44 0.61 0.36 0.69 0.21 0.71 0.13 0.72 -0.03 0.63 0.05 0.72 -0.11 2.11 -0.57 0.65 -0.27 0.58 -0.28 0.66 -0.35 0.58 -0.43 0.6 -0.6 0.34 -0.29 0.6 -0.59 0.59 -0.44 0.5 -0.44 0.44 -0.52 0.52 -0.6 0.43 -0.53 0.88 -1.21 1.11 -1.53 0 0.1 0.09 1.44 0.24 1.44 0.4 1.44 0.37 0.66 0.28 0.65 0.36 0.65 0.89 1.16 0.53 0.5 1.23 0.86 0.61 0.35 0.7 0.27 0.55 0.27 0.69 0.27 0.86 0.28 1.42 0.23 0.71 0.04 0.88 -0.03 0.71 0.03 0.64 -0.04 0.79 -0.12 0.49 -0.13 1.43 -0.17 0.81 -0.19 1.45 -0.4 0.64 -0.29 1.31 -0.72 0.65 -0.29 1.31 -0.72 1.15 -0.89 0.51 -0.53 0.57 -0.37 0.57 -0.21 0.63 0.11 0.62 0.19 0.71 0.12 0.87 0.12 2.86 -0.17 0.64 -0.12 0.73 -0.28 1.3 -0.57 0.57 -0.29 0.66 -0.44 0.57 -0.37 0.58 -0.44 0.5 -0.45 1.08 -1.06 0.5 -0.45 0.43 -0.53 0.51 -0.61 0.42 -0.53 0.35 -0.62 0.85 -1.22 0.43 -0.54 1.05 -1.85 0.27 -0.7 -0.03 -0.87 -0.6 -0.74 -0.94 -0.21 -0.73 0.36 -0.51 0.68 -0.27 0.47 -0.78 1.31 -0.7 1.23 -0.42 0.53 -0.43 0.62 -0.42 0.53 -1.01 1.06 -1.08 0.97 -0.58 0.45 -1.31 0.72 -0.57 0.29 -0.8 0.28 -0.73 0.12 -0.55 0.05 -0.88 0.03 -0.47 -0.02 -0.63 -0.11 -0.05 -0.56 0.44 -0.85 0.78 -1.39 0.53 -0.84 0.27 -0.7 0.36 -0.86 0.36 -0.77 0.28 -0.78 0.37 -1.09 0.6 -2.35 0.12 -0.79 0.12 -0.87 0.21 -0.94 0.14 -2.77 -0.24 -1.44 -0.05 -0.63 -0.04 -0.72 -0.2 -0.72 -0.86 -1.79 -0.44 -0.66 -0.45 -0.58 -0.37 -0.49 -0.53 -0.51 -0.84 -0.52 -1.38 -0.94 -0.62 -0.35 -0.7 -0.27 -0.7 -0.2 -1.02 -0.21 -1.26 -0.23 -1.82 -0.09 -0.72 0.04 -0.79 0.04 -0.72 0.12 -0.8 0.2 -0.49 0.13 -0.88 0.27 -0.49 0.14 -0.8 0.27 -0.65 0.29 -0.9 0.43 -0.9 0.5 -0.73 0.44 -0.66 0.45 -0.58 0.36 -1.15 0.89 -1.08 0.98 -0.51 0.53 -0.85 1.22 -0.51 0.53 -0.42 0.54 -0.51 0.6 -0.43 0.62 -0.52 0.92 -0.45 0.93 -0.27 0.7 -0.35 0.62 -0.35 0.69 -0.28 0.7 -0.27 0.62 -0.19 0.71 -0.2 0.78 -0.07 0.3 -0.13 0.25 -0.36 0.54 -0.45 0.68 -0.91 1.68 -0.44 0.68 -0.36 0.61 -0.44 0.61 -1.22 1.5 -0.88 1.21 -0.87 1.05 -0.59 0.52 -1.51 1.16 -0.66 0.35 -0.73 0.19 -0.64 0.11 -0.71 -0.13 -0.62 -0.28 -0.44 -0.51 -0.18 -0.73 -0.17 -0.96 -0.01 -1.03 -0.02 -0.8 0.05 -0.71 0.13 -0.71 0.21 -0.7 0.12 -0.7 0.23 -0.94 0.23 -1.02 0.21 -0.7 0.13 -0.7 0.62 -2.1 0.23 -1.02 0.23 -0.94 0.21 -0.7 0.29 -0.85 0.2 -0.46 0.38 -1.01 0.31 -1.01 0.29 -0.69 0.21 -0.7 0.2 -0.62 0.21 -0.7 0.29 -0.7 0.28 -0.61 0.29 -0.7 0.2 -0.7 0.21 -0.62 0.21 -0.7 0.28 -0.61 0.28 -0.7 0.29 -0.61 0.28 -0.7 0.29 -0.61 0.2 -0.7 1.06 -2.55 0.29 -0.77 0.46 -0.92 0.67 -1.62 0.28 -0.62 0.29 -0.69 0.46 -0.92 0.39 -0.93 1.12 -2.46 0.38 -0.85 0.38 -0.93 0.47 -0.91 0.28 -0.7 0.29 -0.62 0.36 -0.61 0.36 -0.68 0.21 -0.71 0.2 -0.62 -0.19 -0.64 -0.52 -0.44 -0.78 -0.29 -0.46 -0.19 -0.78 -0.22 -0.71 -0.13 -0.79 -0.05 -0.89 0.25 -0.75 0.51 -0.36 0.61 -0.8 1.29 -0.29 0.61 -0.73 1.38 -0.19 0.46 -0.37 0.77 -0.28 0.62 -0.58 1.39 -0.46 0.92 -0.96 2.31 -0.28 0.62 -0.57 1.39 -0.21 0.62 -0.37 0.77 -0.19 0.46 -0.29 0.77 -0.65 1.31 -0.29 0.69 -0.2 0.62 -0.58 1.39 -0.2 0.7 -0.36 0.53 -0.49 0.21 -0.55 -0.12 -0.86 -0.22 -1.01 -0.23 -1.82 -0.13 -1.43 0.06 -0.8 0.02 -0.72 0.03 -1.44 0.21 -0.65 0.2 -1.46 0.37 -0.73 0.35 -1.23 0.54 -0.74 0.27 -0.65 0.27 -0.58 0.36 -0.67 0.43 -0.58 0.35 -1.76 1.31 -1.03 1.04 -0.59 0.51 -0.51 0.52zm17.54 -2.1l0.53 0.36 0.19 0.73 -0.22 0.86 -0.3 0.77 -0.31 1.01 -0.81 2.48 -0.39 1.01 -1.34 3.24 -0.28 0.62 -0.36 0.68 -0.46 0.85 -0.46 0.92 -0.37 0.68 -0.28 0.62 -0.37 0.69 -0.36 0.61 -0.6 0.67 -0.62 0.91 -0.53 0.68 -0.44 0.6 -0.43 0.53 -0.59 0.51 -0.51 0.52 -0.6 0.6 -1.02 0.88 -0.58 0.35 -0.74 0.35 -0.49 0.2 -0.81 0.26 -0.95 0.01 -0.94 -0.22 -0.69 -0.37 -0.52 -0.51 -0.44 -0.51 -0.36 -0.58 -0.18 -0.73 -0.09 -1.04 -0.07 -1.27 -0.08 -1.04 0.13 -0.78 0.15 -0.95 0.23 -1.01 0.29 -0.7 0.6 -1.86 0.37 -0.69 0.28 -0.62 0.29 -0.69 0.28 -0.62 0.44 -0.6 1.07 -1.67 0.45 -0.69 0.43 -0.52 1.03 -1.12 0.52 -0.52 0.5 -0.44 1.18 -0.87 0.59 -0.51 0.59 -0.44 0.58 -0.35 0.65 -0.35 0.74 -0.27 0.73 -0.19 0.81 -0.26 0.48 -0.12 0.81 -0.11 0.72 -0.1 0.71 0.05 1.51 0.03 0.71 0.04zm20.6 16.1l0.04 -0.71 0.12 -0.71 0.27 -0.7 0.19 -0.62 0.55 -1.4 0.19 -0.63 0.28 -0.7 1.74 -3.08 0.43 -0.61 0.85 -1.07 0.43 -0.61 0.5 -0.53 0.42 -0.54 0.59 -0.52 0.57 -0.45 0.83 -0.59 0.73 -0.44 0.66 -0.36 0.81 -0.43 0.73 -0.2 0.64 -0.13 0.79 0.04 1.03 0.13 1.17 0.3 0.93 0.45 0.61 0.51 0.51 0.82 0.41 1.21 0.25 1.36 0.01 1.27 -0.29 2.68 -0.31 1.33 -0.21 1.02 -0.59 2.11 -1.09 2.8 -0.28 0.62 -0.34 0.46 -0.47 0.06 -0.55 -0.19 -0.7 -0.2 -0.72 0.05 -0.65 0.36 -0.58 0.45 -0.37 0.93 -0.21 0.94 0.13 0.72 0.36 0.65 0.29 0.57 -0.03 0.48 -0.34 0.54 -0.66 0.44 -0.58 0.44 -0.65 0.37 -0.73 0.35 -0.65 0.29 -0.73 0.28 -0.8 0.12 -0.8 0.03 -1.02 -0.05 -1.18 -0.38 -0.85 -0.44 -0.6 -0.58 -0.51 -0.82 -0.49 -1.22 -0.26 -1.28 -0.09 -1.28 -0.02 -1.03 -0.04 -0.79 0.13 -0.95 0.2 -0.94zm45.32 16.15l0.79 0.03 1.97 0.24 0.8 -0.04 0.95 -0.04 1.04 -0.12 0.72 -0.2 0.64 -0.21 0.72 -0.21 0.97 -0.35 0.89 -0.37 0.73 -0.44 0.82 -0.52 0.89 -0.52 1.15 -0.9 0.49 -0.46 0.58 -0.45 0.57 -0.29 0.87 -0.04 0.94 0.2 0.71 0.19 0.71 0.11 0.79 0.11 0.87 -0.05 1.04 -0.11 0.79 -0.04 1.44 -0.26 0.64 -0.29 1.54 -0.81 0.9 -0.44 0.57 -0.45 1.82 -1.67 0.66 -0.68 0.58 -0.69 0.26 -0.39 0.92 -1.31 0.34 -0.53 0.43 -0.62 1.03 -1.86 0.43 -0.93 0.05 -1.03 -0.6 -0.9 -0.94 -0.2 -0.82 0.68 -0.52 0.85 -0.42 0.7 -0.43 0.85 -0.52 0.85 -0.42 0.62 -0.42 0.53 -0.42 0.62 -0.42 0.54 -2.06 1.89 -0.57 0.38 -0.89 0.43 -0.73 0.37 -0.73 0.29 -0.88 0.12 -0.71 0.13 -1.03 -0.05 -1.03 -0.12 -0.46 -0.34 0.18 -0.47 0.5 -0.61 0.34 -0.54 0.84 -1.23 0.34 -0.46 0.42 -0.62 0.43 -0.7 0.35 -0.7 0.34 -0.61 0.69 -1.4 0.26 -0.47 0.43 -0.69 0.35 -0.78 0.17 -0.47 0.28 -0.78 0.26 -0.7 0.27 -0.78 0.1 -0.48 0.19 -0.78 0.54 -1.41 0.19 -0.7 0.11 -0.71 0.19 -0.71 0.18 -0.62 0.19 -0.71 0.19 -0.78 0.11 -0.71 0.19 -0.63 0.22 -1.42 -0.05 -0.71 -0.29 -0.65 -0.77 -0.67 -1.17 -0.44 -1.26 -0.21 -1.35 0.02 -0.96 0.28 -0.5 0.53 -0.2 1.02 -0.12 0.95 -0.11 0.79 -0.11 0.71 -0.03 0.71 -0.11 0.71 -0.11 0.63 -0.27 0.7 -0.18 0.7 -0.27 0.63 -0.37 1.41 -0.19 0.63 -0.19 0.7 -0.62 1.64 -0.44 0.93 -0.35 0.78 -0.18 0.47 -0.35 0.78 -0.26 0.62 -0.27 0.7 -0.34 0.62 -0.43 0.62 -1.02 1.7 -0.49 0.45 -0.8 -0.03 -1.1 -0.13 -0.96 0.12 -0.65 0.45 -0.42 0.54 -0.27 0.7 0.12 1.04 0.35 1.04 0.04 0.88 -0.34 0.54 -0.74 0.6 -1.06 0.75 -1.13 0.58 -1.21 0.43 -1.28 0.18 -1.02 -0.12 -0.63 -0.26 -0.45 -0.5 -0.37 -0.65 -0.2 -0.96 -0.11 -1.03 0.03 -0.8 0.11 -0.63 0.11 -0.78 0.12 -0.95 0.2 -1.02 0.19 -0.79 0.56 -1.88 0.27 -0.78 0.28 -1.02 0.37 -1.25 0.28 -1.02 0.63 -1.64 0.28 -1.02 0.26 -0.7 0.36 -1.02 0.45 -1.17 0.36 -1.01 0.27 -0.7 0.26 -0.63 0.27 -0.7 0.26 -0.62 0.35 -0.7 0.43 -0.86 0.36 -0.93 0.19 -0.71 0.03 -0.71 -0.38 -0.49 -0.62 -0.34 -0.62 -0.27 -0.78 -0.19 -1.51 -0.06 -0.72 0.2 -0.73 0.29 -0.49 0.37 -0.34 0.63 -0.27 0.7 -0.26 0.62 -0.19 0.71 -0.27 0.62 -0.26 0.7 -0.36 0.86 -0.34 0.7 -0.27 0.7 -0.35 0.86 -0.38 1.41 -0.27 0.7 -0.26 0.62 -0.35 0.62 -0.26 0.63 -0.27 0.7 -0.38 1.41 -0.35 0.94 -0.28 0.94 -0.27 0.7 -0.19 0.7 -0.1 0.64 -0.27 0.7 -0.19 0.7 -0.55 1.88 -0.2 0.87 -0.2 1.02 -0.2 0.94 -0.11 0.79 -0.04 0.79 -0.1 0.71 -0.03 0.71 0.12 0.8 0.13 0.72 0.21 0.64 0.28 0.73 0.91 1.15 0.53 0.57 0.54 0.42 0.69 0.43 0.47 0.26 0.77 0.35 0.79 0.19zm40.74 -39.75l-0.19 0.78 -0.1 0.71 0.06 0.72 0.13 0.72 0.38 0.64 0.45 0.57 1.24 0.84 0.79 0.18 0.71 0.1 0.8 -0.13 0.72 -0.29 0.65 -0.46 0.57 -0.45 0.49 -0.62 0.42 -0.62 0.26 -0.71 0.03 -0.79 -0.06 -0.71 -0.21 -0.72 -0.38 -0.65 -0.53 -0.57 -0.54 -0.5 -0.62 -0.41 -0.71 -0.18 -0.79 -0.03 -0.72 0.14 -0.8 0.21 -0.64 0.37 -0.65 0.54 -0.42 0.61 -0.34 0.71zm11.68 23.21l-1.03 -0.19 -0.72 0.37 -0.42 0.62 -1.01 1.87 -0.68 1.32 -0.34 0.71 -0.5 0.69 -0.41 0.62 -0.34 0.47 -0.49 0.54 -0.83 1.24 -0.5 0.62 -0.41 0.54 -0.5 0.54 -2.7 2.52 -0.64 0.46 -0.57 0.37 -0.72 0.3 -0.72 0.05 -0.86 -0.26 -0.61 -0.89 -0.12 -1.2 0.21 -1.34 0.27 -1.26 0.28 -1.02 0.18 -0.71 0.52 -1.41 0.62 -1.96 0.18 -0.7 0.6 -1.33 0.18 -0.71 0.18 -0.63 0.18 -0.71 0.61 -1.64 0.35 -1.02 0.18 -0.71 0.87 -2.34 0.27 -0.95 0.27 -0.78 0.18 -0.71 0.18 -0.63 0.52 -1.41 0.27 -1.02 0.27 -0.94 0.18 -0.71 0.02 -0.71 -0.37 -0.57 -1.25 -0.51 -1.42 -0.21 -0.79 -0.1 -0.64 0.05 -0.72 0.3 -0.49 0.38 -0.34 0.62 -0.26 0.7 -0.35 1.02 -0.27 0.95 -0.26 0.7 -0.54 2.12 -0.26 0.63 -0.35 0.78 -0.18 0.71 -0.17 0.55 -0.19 0.7 -0.52 1.41 -0.27 1.02 -0.27 0.95 -0.52 1.41 -0.18 0.63 -0.18 0.7 -0.26 0.71 -0.18 0.7 -0.1 0.64 -0.79 2.11 -0.26 0.63 -0.26 0.7 -0.18 0.71 -0.26 0.62 -0.36 1.42 -0.26 0.7 -0.18 0.71 -0.21 1.42 -0.02 0.71 0.05 0.72 0.14 0.72 0.14 0.63 0.29 0.73 0.37 0.64 0.38 0.57 0.54 0.49 0.62 0.42 0.71 0.26 0.62 0.26 0.87 0.11 1.35 0.04 1.43 -0.27 0.64 -0.14 0.72 -0.21 0.72 -0.29 0.57 -0.38 1.79 -1.29 0.57 -0.46 0.49 -0.53 0.57 -0.54 0.99 -1 1.48 -1.61 0.83 -1.24 0.42 -0.55 0.49 -0.61 0.41 -0.54 0.42 -0.63 0.42 -0.7 0.25 -0.46 0.5 -0.7 0.34 -0.62 0.42 -0.7 0.75 -1.17 0.68 -1.24 0.26 -0.71 0.03 -0.87 -0.61 -0.81zm5.71 -6.77l-0.81 1.09 -0.48 0.63 -0.32 0.39 -0.49 0.79 -0.41 0.86 -0.49 0.87 -0.65 1.26 -0.25 0.71 -0.73 1.89 -0.25 0.71 -0.25 0.79 -0.09 0.47 -0.25 0.79 -0.16 0.71 -0.18 1.03 -0.09 0.95 -0.09 0.79 -0.01 0.71 0.07 0.71 -0.02 1.03 0.07 0.96 0.07 0.71 0.23 0.72 0.45 1.27 0.23 0.72 0.31 0.63 0.39 0.64 0.7 0.65 0.7 0.72 0.63 0.48 0.55 0.33 0.71 0.33 0.63 0.16 0.71 0.17 0.71 0.09 0.64 0.09 0.71 -0.07 0.79 -0.15 1.83 -0.37 0.8 -0.22 0.64 -0.31 0.71 -0.47 0.81 -0.62 0.72 -0.54 1.68 -1.41 0.48 -0.47 0.89 -1.09 0.48 -0.55 0.41 -0.55 0.73 -1.26 0.4 -0.62 0.41 -0.55 0.15 0.08 -0.02 1.5 0.21 2.15 0.15 0.63 0.23 0.72 0.3 0.64 0.78 1.12 0.55 0.56 0.47 0.4 0.63 0.41 0.63 0.32 0.71 0.17 0.71 0.09 0.71 -0.07 0.64 0.01 0.71 -0.15 2.07 -0.68 0.64 -0.31 0.56 -0.31 0.64 -0.39 0.56 -0.46 0.56 -0.63 0.32 -0.31 0.57 -0.63 0.56 -0.47 0.48 -0.46 0.4 -0.55 0.49 -0.63 0.4 -0.55 0.81 -1.26 1.05 -1.64 0.49 -0.71 0.98 -1.89 0.32 -0.47 0.49 -1.02 0.49 -0.87 0.4 -0.78 0.41 -0.95 0.02 -1.03 -0.55 -0.8 -0.94 -0.17 -0.88 0.62 -0.41 0.87 -0.33 0.71 -0.32 0.55 -0.41 0.7 -0.82 1.74 -0.4 0.7 -0.33 0.63 -0.4 0.63 -1.13 1.57 -0.81 1.26 -0.81 1.09 -0.56 0.55 -1.45 1.25 -0.64 0.38 -0.71 0.23 -0.64 0.15 -0.71 -0.09 -0.63 -0.25 -0.47 -0.48 -0.23 -0.71 -0.22 -0.96 -0.07 -1.03 -0.06 -0.79 0 -0.71 0.09 -0.72 0.17 -0.71 0.09 -0.71 0.17 -0.95 0.18 -1.03 0.17 -0.71 0.08 -0.71 0.51 -2.13 0.17 -1.03 0.18 -0.95 0.16 -0.71 0.25 -0.86 0.17 -0.48 0.33 -1.02 0.25 -1.03 0.25 -0.71 0.17 -0.71 0.17 -0.63 0.16 -0.71 0.25 -0.71 0.25 -0.63 0.25 -0.71 0.17 -0.71 0.16 -0.63 0.17 -0.71 0.25 -0.63 0.24 -0.71 0.25 -0.63 0.25 -0.71 0.25 -0.63 0.16 -0.71 0.91 -2.61 0.25 -0.78 0.41 -0.95 0.58 -1.66 0.24 -0.63 0.25 -0.71 0.41 -0.94 0.33 -0.95 0.99 -2.52 0.33 -0.86 0.33 -0.95 0.41 -0.95 0.25 -0.71 0.24 -0.63 0.33 -0.62 0.32 -0.71 0.17 -0.71 0.17 -0.64 -0.23 -0.63 -0.55 -0.41 -0.79 -0.25 -0.47 -0.16 -0.79 -0.17 -0.71 -0.09 -0.79 -0.01 -0.88 0.3 -0.72 0.55 -0.33 0.63 -0.73 1.33 -0.24 0.63 -0.66 1.42 -0.16 0.47 -0.33 0.79 -0.25 0.63 -0.49 1.42 -0.41 0.95 -0.83 2.36 -0.24 0.63 -0.5 1.42 -0.17 0.63 -0.32 0.79 -0.17 0.47 -0.25 0.79 -0.57 1.34 -0.25 0.71 -0.17 0.63 -0.49 1.42 -0.17 0.71 -0.33 0.55 -0.47 0.23 -0.56 -0.08 -0.87 -0.17 -1.02 -0.18 -1.83 -0.02 -1.43 0.13 -0.79 0.07 -0.71 0.07 -1.43 0.3 -0.64 0.23 -1.43 0.45 -0.72 0.39 -1.2 0.62 -0.71 0.3 -0.64 0.31 -0.56 0.39 -0.64 0.47 -0.56 0.38 -1.69 1.41 -0.96 1.09 -0.57 0.55 -0.48 0.55zm17.4 -3.09l0.55 0.33 0.22 0.71 -0.17 0.87 -0.25 0.79 -0.25 1.03 -0.67 2.52 -0.33 1.03 -1.15 3.31 -0.25 0.63 -0.33 0.71 -0.41 0.87 -0.41 0.94 -0.32 0.71 -0.25 0.63 -0.33 0.71 -0.32 0.63 -0.57 0.7 -0.56 0.94 -0.49 0.71 -0.4 0.63 -0.41 0.55 -0.56 0.55 -0.48 0.54 -0.57 0.63 -0.96 0.94 -0.56 0.38 -0.72 0.39 -0.48 0.23 -0.8 0.31 -0.95 0.06 -0.95 -0.17 -0.7 -0.33 -0.55 -0.48 -0.47 -0.48 -0.39 -0.56 -0.23 -0.72 -0.14 -1.03 -0.14 -1.27 -0.14 -1.03 0.09 -0.79 0.09 -0.95 0.17 -1.03 0.25 -0.71 0.5 -1.89 0.33 -0.71 0.24 -0.63 0.25 -0.71 0.25 -0.63 0.4 -0.63 0.98 -1.73 0.41 -0.71 0.4 -0.55 0.97 -1.17 0.48 -0.55 0.48 -0.47 1.12 -0.93 0.57 -0.55 0.56 -0.47 0.56 -0.38 0.64 -0.39 0.71 -0.31 0.72 -0.23 0.8 -0.3 0.47 -0.15 0.8 -0.15 0.71 -0.15 0.72 0.01 1.5 -0.06 0.72 0.01zm58.77 13.19l0.32 -0.71 -0.07 -0.79 -0.63 -0.8 -0.95 -0.16 -0.72 0.39 -1.6 3.16 -0.4 0.63 -0.32 0.64 -1.27 1.89 -0.16 0.48 -0.48 0.63 -0.4 0.63 -0.8 1.1 -0.96 1.11 -0.95 1.03 -0.56 0.55 -1.11 0.78 -0.72 0.4 -0.95 0.31 -1.19 -0.08 -0.79 -0.4 -0.39 -0.64 -0.07 -1.03 0.08 -1.19 0.24 -1.34 0.25 -1.19 0.16 -0.87 0.16 -0.79 0.24 -0.95 0.33 -1.35 0.16 -0.71 0.24 -0.95 0.08 -0.48 0.17 -0.79 0.48 -1.42 0.16 -0.63 0.24 -0.72 0.32 -1.42 0.24 -0.71 0.17 -0.71 0.24 -0.64 -0.08 -0.71 -0.31 -0.48 -0.64 -0.4 -1.26 -0.64 -0.71 -0.16 -0.71 -0.08 -0.72 0.16 -0.79 0.39 -0.48 0.71 -0.24 0.79 -0.32 0.87 -0.49 1.58 -0.32 0.87 -0.24 0.71 -0.24 0.64 -0.32 0.71 -0.16 0.55 -0.32 0.71 -0.96 2.06 -0.32 0.47 -0.56 1.03 -0.48 0.87 -1.2 1.89 -0.4 0.56 -0.87 1.18 -0.4 0.55 -0.48 0.56 -0.4 0.55 -0.47 0.55 -0.56 0.47 -0.48 0.48 -1.11 0.94 -1.27 0.63 -0.72 0.23 -1.03 0.08 -0.95 -0.16 -0.71 -0.32 -0.47 -0.48 -0.39 -0.64 -0.32 -0.63 -0.23 -0.72 -0.08 -0.79 0.01 -2.22 0.25 -2.14 0.24 -0.79 0.49 -2.13 0.32 -0.64 0.32 -0.71 0.48 -1.42 0.4 -0.63 0.96 -1.9 0.4 -0.63 0.39 -0.55 0.96 -1.11 0.4 -0.55 0.48 -0.55 0.55 -0.64 0.32 -0.31 0.64 -0.55 0.55 -0.48 0.56 -0.39 0.64 -0.39 0.55 -0.39 0.8 -0.48 0.79 -0.39 1.99 -0.7 1.03 -0.24 0.79 -0.07 0.55 -0.08 1.59 0.01 0.79 0.16 0.79 0.24 1.35 0.33 0.63 0.16 0.71 0.32 0.63 0.32 0.56 0.24 0.63 0.4 0.71 0.4 0.63 0.48 0.64 0.24 0.63 -0.08 0.87 -0.55 0.88 -0.95 0.32 -1.1 -0.15 -0.88 -0.48 -0.55 -0.55 -0.48 -0.55 -0.4 -0.55 -0.48 -3.17 -1.44 -0.87 -0.24 -0.71 -0.16 -1.74 -0.33 -1.82 -0.17 -1.58 -0.08 -0.96 -0.01 -0.71 0.08 -1.98 0.15 -0.79 0.23 -0.96 0.24 -0.95 0.31 -0.79 0.39 -0.88 0.47 -0.95 0.39 -0.71 0.32 -0.56 0.39 -0.63 0.4 -1.12 0.86 -0.87 0.63 -0.72 0.71 -1.11 0.95 -0.56 0.63 -0.32 0.31 -1.03 1.19 -0.48 0.55 -0.8 1.1 -0.4 0.63 -0.4 0.56 -0.4 0.63 -1.91 3.79 -0.24 0.72 -0.32 0.63 -0.24 0.71 -0.25 1.03 -0.24 0.95 -0.24 0.79 -0.16 0.95 -0.09 1.03 -0.08 0.79 -0.01 1.03 0.08 1.27 0.15 1.03 0.08 0.79 0.23 1.03 0.47 1.19 0.47 0.88 0.39 0.63 0.4 0.56 1.1 0.95 0.55 0.4 0.64 0.24 0.71 0.24 0.95 0.25 0.95 0.16 0.79 0.08 1.43 -0.15 1.03 -0.23 1.27 -0.39 1.19 -0.55 0.87 -0.55 0.64 -0.4 0.55 -0.39 0.56 -0.47 0.48 -0.47 0.55 -0.48 0.4 -0.55 0.48 -0.55 0.4 -0.55 0.48 -0.56 0.8 -1.1 0.79 -1.27 0.4 -0.55 0.24 0.16 -0.09 0.95 -0.08 1.03 0 0.79 0.07 1.03 0.23 0.95 0.24 0.72 0.55 0.87 0.55 0.8 0.55 0.47 0.56 0.4 0.71 0.25 0.95 0.24 0.95 0.08 0.79 0 0.71 -0.15 0.72 -0.24 0.95 -0.39 0.87 -0.39 0.72 -0.39 0.63 -0.39 2.23 -1.89 0.48 -0.48 0.48 -0.55 0.87 -1.11 0.48 -0.55 0.48 -0.63 0.48 -0.55 0.4 -0.63 0.32 -0.64 0.39 -0.63 0.4 -0.55 0.8 -1.26 0.32 -0.64 0.32 -0.71 0.32 -0.63 0.4 -0.55 0.4 -0.79 0.16 -0.4 0.4 -0.79zm53.81 -0.74l0.3 -0.72 -0.09 -0.79 -0.64 -0.78 -0.95 -0.15 -0.71 0.41 -1.54 3.19 -0.39 0.64 -0.31 0.64 -1.24 1.92 -0.15 0.47 -0.47 0.65 -0.38 0.63 -0.78 1.12 -0.93 1.13 -0.94 1.04 -0.55 0.56 -1.09 0.81 -0.71 0.41 -0.95 0.33 -1.19 -0.07 -0.79 -0.38 -0.41 -0.63 -0.09 -1.03 0.06 -1.19 0.22 -1.35 0.22 -1.19 0.15 -0.87 0.14 -0.8 0.23 -0.95 0.3 -1.35 0.14 -0.72 0.23 -0.95 0.07 -0.48 0.15 -0.79 0.45 -1.43 0.15 -0.64 0.23 -0.72 0.3 -1.43 0.22 -0.71 0.15 -0.72 0.23 -0.63 -0.09 -0.72 -0.32 -0.47 -0.64 -0.38 -1.28 -0.62 -0.71 -0.15 -0.72 -0.07 -0.71 0.17 -0.78 0.41 -0.47 0.72 -0.23 0.79 -0.3 0.88 -0.45 1.59 -0.31 0.88 -0.23 0.71 -0.22 0.64 -0.31 0.72 -0.15 0.55 -0.31 0.72 -0.92 2.07 -0.31 0.48 -0.54 1.04 -0.46 0.88 -1.16 1.92 -0.39 0.56 -0.86 1.2 -0.39 0.56 -0.46 0.56 -0.39 0.56 -0.47 0.56 -0.55 0.48 -0.47 0.48 -1.09 0.97 -1.26 0.65 -0.71 0.25 -1.03 0.09 -0.95 -0.14 -0.72 -0.31 -0.48 -0.47 -0.4 -0.63 -0.33 -0.62 -0.25 -0.71 -0.09 -0.79 -0.03 -2.22 0.21 -2.14 0.22 -0.8 0.45 -2.15 0.31 -0.63 0.3 -0.72 0.46 -1.43 0.39 -0.64 0.92 -1.92 0.39 -0.64 0.39 -0.56 0.93 -1.12 0.39 -0.56 0.47 -0.56 0.54 -0.64 0.31 -0.32 0.63 -0.57 0.55 -0.48 0.55 -0.4 0.62 -0.41 0.55 -0.4 0.79 -0.49 0.79 -0.41 1.97 -0.74 1.02 -0.25 0.79 -0.09 0.56 -0.09 1.58 -0.02 0.8 0.15 0.79 0.23 1.35 0.29 0.64 0.15 0.71 0.31 0.64 0.31 0.56 0.23 0.64 0.38 0.72 0.39 0.64 0.47 0.64 0.22 0.63 -0.08 0.86 -0.57 0.86 -0.96 0.3 -1.12 -0.17 -0.87 -0.48 -0.54 -0.56 -0.47 -0.56 -0.39 -0.56 -0.47 -3.19 -1.38 -0.88 -0.22 -0.71 -0.15 -1.75 -0.29 -1.82 -0.14 -1.59 -0.05 -0.95 0.01 -0.71 0.09 -1.98 0.19 -0.79 0.25 -0.95 0.25 -0.94 0.33 -0.79 0.4 -0.86 0.49 -0.95 0.41 -0.71 0.33 -0.55 0.4 -0.62 0.41 -1.1 0.88 -0.86 0.65 -0.71 0.72 -1.09 0.97 -0.55 0.64 -0.31 0.32 -1.01 1.2 -0.47 0.57 -0.78 1.12 -0.38 0.63 -0.39 0.56 -0.39 0.64 -1.85 3.83 -0.22 0.72 -0.31 0.64 -0.23 0.71 -0.22 1.04 -0.23 0.95 -0.22 0.8 -0.15 0.95 -0.06 1.03 -0.07 0.79 0.01 1.03 0.1 1.27 0.17 1.03 0.09 0.79 0.26 1.02 0.49 1.19 0.49 0.86 0.4 0.63 0.4 0.55 1.13 0.93 0.56 0.39 0.63 0.23 0.72 0.23 0.95 0.22 0.96 0.15 0.79 0.06 1.42 -0.18 1.03 -0.25 1.26 -0.41 1.18 -0.57 0.87 -0.57 0.62 -0.4 0.55 -0.41 0.55 -0.48 0.47 -0.48 0.55 -0.49 0.39 -0.56 0.46 -0.56 0.39 -0.56 0.47 -0.56 0.77 -1.12 0.78 -1.28 0.39 -0.56 0.24 0.16 -0.07 0.95 -0.06 1.03 0.01 0.79 0.09 1.03 0.25 0.95 0.25 0.71 0.57 0.86 0.56 0.79 0.56 0.46 0.56 0.39 0.72 0.23 0.95 0.22 0.96 0.07 0.79 -0.01 0.71 -0.17 0.71 -0.25 0.94 -0.41 0.87 -0.41 0.71 -0.4 0.63 -0.41 2.19 -1.93 0.46 -0.48 0.47 -0.56 0.86 -1.12 0.47 -0.56 0.46 -0.65 0.47 -0.56 0.39 -0.64 0.3 -0.63 0.39 -0.64 0.39 -0.56 0.77 -1.28 0.31 -0.64 0.31 -0.72 0.31 -0.64 0.38 -0.56 0.39 -0.79 0.15 -0.4 0.39 -0.8zm24.04 10.73l0.55 -0.41 0.54 -0.25 0.64 0.07 0.64 0.14 0.71 0.06 0.88 0.06 2.84 -0.38 0.63 -0.18 0.7 -0.33 1.26 -0.66 0.54 -0.33 0.63 -0.49 0.54 -0.41 0.54 -0.49 0.47 -0.49 1 -1.13 0.47 -0.49 0.38 -0.56 0.46 -0.64 0.38 -0.57 0.3 -0.64 0.77 -1.29 0.38 -0.56 0.9 -1.92 0.23 -0.72 -0.1 -0.87 -0.65 -0.7 -0.96 -0.13 -0.7 0.41 -0.46 0.72 -0.23 0.48 -0.68 1.37 -0.6 1.28 -0.39 0.56 -0.38 0.65 -0.38 0.56 -0.92 1.13 -1.01 1.05 -0.54 0.49 -1.25 0.82 -0.55 0.33 -0.78 0.34 -0.71 0.18 -0.55 0.09 -0.87 0.1 -0.48 0.01 -0.63 -0.07 -0.1 -0.55 0.38 -0.88 0.68 -1.44 0.45 -0.88 0.22 -0.72 0.3 -0.88 0.3 -0.8 0.22 -0.8 0.29 -1.11 0.42 -2.39 0.06 -0.8 0.06 -0.87 0.13 -0.95 -0.06 -2.77 -0.35 -1.42 -0.1 -0.63 -0.09 -0.71 -0.26 -0.71 -0.99 -1.72 -0.49 -0.62 -0.49 -0.55 -0.4 -0.46 -0.57 -0.47 -0.88 -0.45 -1.45 -0.84 -0.64 -0.3 -0.72 -0.22 -0.71 -0.14 -1.04 -0.14 -1.27 -0.13 -1.82 0.05 -0.71 0.09 -0.79 0.1 -0.71 0.18 -0.79 0.25 -0.47 0.17 -0.86 0.34 -0.47 0.17 -0.79 0.33 -0.62 0.34 -0.86 0.49 -0.86 0.58 -0.7 0.49 -0.63 0.49 -0.54 0.41 -1.09 0.97 -1 1.06 -0.46 0.56 -0.77 1.29 -0.46 0.57 -0.38 0.56 -0.46 0.64 -0.38 0.65 -0.46 0.96 -0.37 0.96 -0.22 0.72 -0.3 0.64 -0.3 0.72 -0.22 0.72 -0.23 0.63 -0.14 0.72 -0.14 0.8 -0.2 1.43 -0.14 0.71 -0.15 0.64 -0.14 0.72 0.05 2.22 -0.06 0.71 0.1 0.79 0.19 1.42 0.35 1.42 0.51 1.42 0.41 0.62 0.33 0.63 0.41 0.62 0.98 1.09 0.57 0.46 1.28 0.76 0.64 0.3 0.72 0.22 0.56 0.23 0.72 0.22 0.88 0.22 1.43 0.12 0.71 -0.01 0.87 -0.11 0.71 -0.01 0.63 -0.1 0.79 -0.17 0.47 -0.17 1.42 -0.27 0.79 -0.26 1.41 -0.51 0.63 -0.33 1.25 -0.82 0.62 -0.33 1.25 -0.83 1.09 -0.97 0.46 -0.57zm-16.21 -8.65l-0.02 -0.71 0.07 -0.72 0.22 -0.72 0.14 -0.63 0.44 -1.44 0.15 -0.64 0.22 -0.72 1.51 -3.2 0.38 -0.64 0.76 -1.13 0.38 -0.65 0.47 -0.56 0.38 -0.56 0.54 -0.57 0.54 -0.49 0.78 -0.65 0.7 -0.49 0.63 -0.41 0.78 -0.5 0.7 -0.25 0.63 -0.18 0.8 -0.01 1.03 0.05 1.19 0.21 0.96 0.37 0.65 0.46 0.57 0.78 0.5 1.18 0.35 1.34 0.11 1.26 -0.1 2.7 -0.2 1.35 -0.14 1.03 -0.42 2.16 -0.88 2.87 -0.23 0.64 -0.3 0.48 -0.48 0.09 -0.55 -0.14 -0.72 -0.15 -0.71 0.1 -0.63 0.41 -0.54 0.49 -0.29 0.96 -0.14 0.95 0.18 0.71 0.41 0.62 0.33 0.55 0.01 0.48 -0.31 0.56 -0.62 0.49 -0.54 0.49 -0.63 0.41 -0.7 0.41 -0.63 0.33 -0.7 0.34 -0.79 0.17 -0.79 0.1 -1.03 0.03 -1.19 -0.29 -0.88 -0.38 -0.65 -0.54 -0.57 -0.78 -0.59 -1.17 -0.34 -1.26 -0.19 -1.27 -0.1 -1.02 -0.1 -0.79 0.05 -0.96 0.14 -0.95zm76.2 -4.71l-1.43 2.52 -0.37 0.57 -0.99 1.07 -1.06 1.08 -0.54 0.5 -1.23 0.84 -0.62 0.27 -1.41 0.53 -1.41 0.22 -0.72 0.03 -0.64 -0.13 -0.25 -0.39 -0.11 -0.63 -0.08 -1.97 -0.11 -0.79 -0.21 -1.02 -0.21 -1.27 -0.2 -1.02 -0.27 -0.7 -0.79 -1.87 -0.27 -0.7 -0.26 -0.62 -0.35 -0.7 -0.51 -0.85 -0.36 -0.94 -0.34 -0.7 -0.97 -2.18 -0.53 -1.25 -0.44 -1.25 -0.45 -1.01 -0.19 -0.78 -0.27 -0.94 -0.2 -0.94 0.05 -0.72 0.13 -0.64 0.37 -0.65 0.29 -0.65 0.12 -0.72 -0.03 -0.71 -0.26 -0.62 -0.5 -0.53 -0.65 -0.37 -0.72 -0.13 -0.71 -0.05 -0.63 0.1 -0.71 0.19 -0.78 0.27 -0.7 0.35 -1.23 0.85 -0.54 0.49 -0.53 0.58 -0.45 0.58 -0.9 1.06 -1.81 2.3 -0.37 0.57 -0.37 0.73 -0.3 0.41 -0.36 0.73 -0.29 0.65 -0.37 0.65 -0.37 0.73 -0.52 0.89 -0.43 0.89 -0.29 0.73 -0.37 0.65 -0.87 1.94 -0.21 0.64 -0.28 0.72 -0.37 0.73 -0.22 0.49 -0.36 0.73 -0.58 1.29 -0.13 0.72 -0.05 0.72 0.42 0.61 0.81 0.37 0.71 -0.19 0.6 -0.74 0.44 -0.89 0.28 -0.73 0.29 -0.65 0.66 -1.29 0.29 -0.73 0.44 -0.89 0.43 -1.05 0.29 -0.65 0.29 -0.56 0.29 -0.65 0.37 -0.57 0.29 -0.73 0.44 -0.89 0.8 -1.62 0.37 -0.57 0.37 -0.65 0.75 -1.14 0.45 -0.57 1.06 -1.16 0.47 -0.18 0.18 0.47 0.11 0.71 0.1 0.63 0.19 0.71 0.27 0.7 0.28 0.94 0.35 0.94 0.27 0.78 0.27 0.62 0.27 0.7 0.26 0.63 0.27 0.7 0.26 0.62 0.27 0.7 0.26 0.63 0.35 0.62 0.26 0.62 0.27 0.7 0.26 0.62 0.27 0.71 0.18 0.62 0.27 0.71 0.27 0.62 0.26 0.7 0.19 0.71 0.03 0.55 -0.3 0.41 -1.16 0.84 -0.45 0.5 -0.37 0.73 -0.05 0.71 0.12 0.79 0.34 0.62 0.5 0.61 0.42 0.54 0.03 0.79 -0.36 0.81 -0.53 0.5 -0.61 0.5 -0.55 0.34 -0.7 0.27 -0.63 0.1 -0.79 0.04 -0.72 -0.13 -0.64 -0.21 -0.65 -0.29 -0.57 -0.37 -0.5 -0.54 -0.42 -0.53 -0.42 -0.62 -0.34 -0.62 -0.38 -1.41 -0.11 -0.71 0.05 -0.72 -0.03 -0.71 -0.1 -0.63 -0.5 -0.45 -0.95 -0.04 -1.18 0.36 -0.91 0.84 -0.44 0.89 -0.13 0.79 0.06 1.43 0.12 0.79 0.56 2.11 0.27 0.71 1.27 1.85 0.57 0.53 0.58 0.45 1.22 0.82 0.73 0.36 0.73 0.29 0.56 0.21 0.72 0.21 0.8 0.05 0.79 -0.04 1.03 -0.12 1.34 -0.14 1.25 -0.29 1.02 -0.28 0.7 -0.34 0.77 -0.51 0.85 -0.51 0.7 -0.51 0.76 -0.67 0.69 -0.66 0.53 -0.58 0.37 -0.57 0.38 -0.49 0.46 -0.26 0.63 -0.02 0.72 0.05 0.79 -0.04 0.55 -0.1 0.79 -0.11 0.94 -0.2 0.71 -0.19 0.55 -0.18 0.7 -0.27 0.62 -0.34 0.7 -0.35 0.53 -0.42 0.62 -0.5 0.53 -0.42 0.54 -0.5 0.53 -0.58 1.25 -1.58 0.08 0.47 0.19 0.7 0.19 0.63 0.2 0.7 0.27 0.7 0.27 0.62 0.36 0.7 0.34 0.54 0.43 0.61 0.5 0.53 0.59 0.6 0.33 0.38 0.59 0.53 0.58 0.44 0.65 0.29 1.3 0.64 0.65 0.29 0.73 0.28 0.72 0.2 0.64 0.12 2.86 0.17 0.72 -0.03 0.86 -0.13 1.03 -0.13 1.65 -0.25 0.94 -0.28 1.02 -0.21 0.7 -0.28 0.62 -0.27 1.93 -0.97 1.23 -0.86 0.68 -0.67 0.75 -0.67 1.06 -1.01 0.45 -0.58 0.52 -0.66 0.22 -0.33 0.52 -0.66 0.45 -0.58 0.45 -0.5 0.44 -0.57 0.74 -1.15 0.44 -0.74 0.21 -0.49 0.72 -1.3 0.44 -0.82 0.43 -0.89 0.35 -0.89 0.43 -0.9 0.35 -0.89 0.28 -0.73 0.04 -0.71 -0.43 -0.7 -0.74 -0.43 -0.71 0.03 -0.53 0.43 -0.37 0.65 -0.28 0.65 -0.28 0.73 -0.28 0.65 -0.37 0.57 -0.28 0.65 -0.37 0.65 -0.28 0.65 -0.36 0.66 -0.74 1.15 -0.44 0.65 -0.37 0.58 -0.89 1.15 -1.05 1.09 -0.53 0.5 -0.54 0.43 -1.06 0.92 -1.23 0.7 -1.32 0.63 -0.62 0.27 -0.7 0.27 -0.7 0.2 -2.04 0.5 -0.71 0.11 -0.79 0.05 -0.71 -0.05 -0.72 -0.12 -0.56 -0.05 -0.73 -0.2 -0.8 -0.2 -1.31 -0.72 -0.5 -0.45 -0.5 -0.53 -0.86 -1.23 -0.54 -1.4 -0.2 -0.62 -0.12 -0.79 -0.07 -1.34 0.04 -0.8 -0.03 -0.71 0.12 -0.56 0.38 -0.34 0.56 -0.03 2.16 0.37 0.72 0.04 1.42 0 1.44 0.09 0.71 -0.04 0.71 -0.11 0.94 -0.21 0.86 -0.12 0.79 -0.2 0.7 -0.12 0.7 -0.27 0.78 -0.28 0.7 -0.36 0.46 -0.26 0.77 -0.51 0.46 -0.19 0.7 -0.43 0.53 -0.42 1.06 -1.01 0.89 -1.16 0.37 -0.57 0.28 -0.65 0.36 -0.73 0.22 -0.41 0.27 -0.81 0.27 -0.96 0.19 -0.97 0.04 -0.79 0.02 -1.03 -0.05 -0.95 -0.11 -0.71 -0.2 -0.7 -0.27 -0.7 -0.45 -0.93 -0.51 -0.77 -0.51 -0.53 -1.15 -0.89 -0.5 -0.29 -0.64 -0.29 -0.73 -0.28 -0.73 -0.2 -1.04 -0.18 -1.28 -0.17 -1.03 -0.11 -1.74 0.09 -1.02 0.21 -1.41 0.4 -1.63 0.63 -1.01 0.53 -0.69 0.36 -0.77 0.43 -0.77 0.52 -0.68 0.59 -0.77 0.59 -0.68 0.59 -0.6 0.59 -1.13 1.25 -1.12 1.33 -0.45 0.57 -0.36 0.58 -0.28 0.73 -0.52 0.82 -0.43 0.89 -0.35 0.73 -0.35 0.97 -0.27 0.89 -0.2 0.73 -0.13 0.71 -0.19 0.73 -0.13 0.72 -0.2 0.64 -0.26 1.55zm16.56 -14.61l0.78 -0.2 0.72 0.05 0.72 0.12 0.73 0.28 0.65 0.44 0.51 0.53 0.35 0.7 0.12 0.78 -0.04 0.72 -0.12 0.8 -0.4 1.45 -0.36 0.73 -0.28 0.65 -0.37 0.57 -0.44 0.66 -0.53 0.5 -0.53 0.59 -0.52 0.5 -0.54 0.42 -0.77 0.44 -0.47 0.18 -0.77 0.36 -0.7 0.2 -0.79 0.19 -2.21 0.12 -0.8 -0.04 -1.58 0 -1.04 -0.18 -0.42 -0.37 0.05 -0.56 0.2 -0.65 0.28 -0.73 0.27 -0.96 0.43 -0.9 0.36 -0.73 0.51 -0.82 0.51 -0.9 0.52 -0.66 0.6 -0.74 0.67 -0.75 1.06 -1.01 0.61 -0.43 0.93 -0.52 1.08 -0.53 1.02 -0.3zm41.68 -6.33l-0.52 0.44 -0.35 0.66 -0.27 0.65 -0.19 0.73 -0.11 0.64 -0.38 1.46 -0.19 0.65 -0.37 1.45 -0.12 0.65 -0.1 0.72 -0.27 0.73 -0.19 0.65 -0.19 0.73 -0.19 0.65 -0.19 0.73 -0.21 1.44 -0.2 0.65 -0.26 0.73 -0.19 0.65 -0.19 0.73 -0.19 0.65 -0.19 0.73 -0.19 0.65 -0.27 0.73 -0.27 0.65 -0.34 0.74 -0.55 1.31 -0.49 0.91 -0.42 0.82 -0.42 0.75 -0.36 0.58 -1.3 1.76 -0.44 0.51 -1.04 1.02 -0.61 0.44 -0.68 0.45 -0.61 0.36 -0.54 0.28 -0.61 0.36 -1.4 0.41 -0.96 -0.09 -1.07 -0.56 -0.71 -1.06 -0.24 -1.25 -0.11 -1.43 0.07 -1.27 0.17 -1.05 0.11 -0.72 0.18 -0.72 0.12 -0.65 0.21 -1.44 0.19 -0.73 0.11 -0.72 0.02 -0.72 0.22 -1.45 0.19 -0.64 0.11 -0.73 0.19 -0.72 0.25 -0.9 0.13 -0.48 0.24 -1.05 0.16 -1.05 0.19 -0.72 0.18 -0.89 0.21 -0.41 0.24 -0.97 0.05 -0.48 0.26 -0.81 0.38 -1.46 0.11 -0.64 0.18 -0.73 0.11 -0.72 -0.04 -0.64 -0.35 -0.45 -0.65 -0.27 -0.73 -0.19 -0.73 -0.1 -0.71 -0.03 -0.78 0.21 -0.7 0.21 -0.69 0.37 -0.53 0.43 -0.27 0.66 -0.19 0.72 -0.16 0.97 -0.33 0.97 -0.19 0.73 -0.19 0.65 -0.69 2.67 -0.18 0.81 -0.87 3.39 -0.03 0.64 -0.19 0.73 -0.11 0.72 -0.19 0.65 -0.44 1.7 -0.17 0.97 -0.18 0.72 -0.22 1.45 -0.17 1.04 -0.09 0.96 -0.02 0.72 -0.11 0.72 -0.03 0.72 -0.11 0.72 -0.03 0.72 0.15 2.13 0.14 0.79 0.13 0.7 0.28 0.62 0.36 0.68 0.87 1.06 0.6 0.51 1.16 0.71 0.65 0.27 0.73 0.19 0.56 0.12 0.72 0.03 0.8 0.02 0.72 0.03 0.7 -0.13 2.8 -0.83 0.69 -0.29 1.22 -0.72 1.22 -0.8 0.6 -0.44 0.53 -0.44 0.43 -0.58 1.4 -1.61 1.3 -1.76 0.43 -0.67 0.72 -1.16 0.35 -0.66 0.2 -0.41 0.11 0.31 -0.11 0.8 -0.02 0.8 0.15 1.02 0.25 1.25 0.4 1.24 0.47 0.92 0.52 0.68 0.68 0.67 0.76 0.58 0.81 0.26 0.97 0.17 0.95 0.01 0.71 -0.13 1.4 -0.41 1.83 -1.09 1.2 -0.87 1.04 -1.03 0.45 -0.51 0.96 -1.02 0.87 -1.17 0.43 -0.67 0.35 -0.58 0.87 -1.17 0.36 -0.58 0.7 -1.32 0.36 -0.58 0.7 -1.33 0.27 -0.65 0.18 -0.73 0.55 -1.31 0.35 -0.66 0.35 -0.58 0.27 -0.65 0.19 -0.73 -0.13 -0.79 -0.69 -0.74 -0.97 -0.17 -0.6 0.44 -0.43 0.66 -0.61 1.48 -0.34 0.89 -0.33 0.82 -0.42 0.83 -0.29 0.41 -0.35 0.74 -0.35 0.66 -0.26 0.74 -0.28 0.57 -0.43 0.59 -0.43 0.66 -0.72 1.17 -0.86 1.17 -0.53 0.43 -0.52 0.52 -0.51 0.59 -1.05 0.87 -0.69 0.36 -0.63 0.13 -0.72 -0.03 -0.57 -0.28 -0.44 -0.52 -0.28 -0.7 -0.26 -1.41 -0.05 -0.71 0.03 -0.72 -0.05 -0.71 0.02 -0.79 0.08 -1.04 0.09 -0.96 0.19 -0.81 0.16 -1.04 0.17 -0.97 0.32 -2.16 0.19 -0.73 0.11 -0.73 0.11 -0.64 0.19 -0.73 0.12 -0.56 0.18 -0.73 0.19 -0.81 0.19 -0.65 0.18 -0.72 0.22 -1.45 0.27 -0.65 0.19 -0.73 0.11 -0.64 0.19 -0.73 0.54 -1.31 0.44 -1.7 0.17 -0.96 -0.36 -0.61 -0.66 -0.35 -0.65 -0.2 -0.8 -0.1 -0.72 -0.03 -0.8 -0.02 -0.78 0.13 -0.7 0.29zm71.03 9.69l-0.4 0.98 -0.26 0.73 -0.26 0.66 -0.42 0.75 -0.61 1.24 -0.35 0.66 -0.42 0.67 -0.35 0.59 -0.52 0.52 -0.43 0.59 -1.03 1.03 -1.28 0.82 -0.61 0.37 -0.76 0.38 -0.7 0.21 -0.55 0.05 -0.79 0.14 -0.7 0.13 -0.57 -0.11 -0.18 -0.3 0.73 -1.81 0.72 -1.96 0.25 -0.74 0.18 -0.73 0.11 -0.64 0.1 -0.73 0.18 -0.73 0.29 -1.37 0.1 -0.73 0.11 -0.64 0.02 -0.72 0.02 -0.79 0.02 -0.72 -0.06 -0.71 0.02 -0.72 -0.13 -0.7 -0.17 -2.13 -0.43 -1.4 -0.21 -0.62 -0.22 -0.7 -0.29 -0.69 -0.29 -0.61 -0.36 -0.61 -0.53 -0.67 -1.03 -0.87 -0.52 -0.52 -0.58 -0.35 -0.66 -0.26 -0.81 -0.26 -0.65 -0.18 -0.65 -0.11 -0.65 -0.19 -0.72 -0.1 -0.8 -0.01 -1.02 0.08 -0.95 0.15 -0.78 0.15 -1 0.39 -1.07 0.49 -0.92 0.47 -0.69 0.37 -0.82 0.62 -0.75 0.54 -0.59 0.6 -0.74 0.62 -0.67 0.69 -0.37 0.35 -0.16 -0.07 0.12 -0.49 0.16 -1.04 -0.1 -1.19 -0.78 -0.81 -1.22 -0.38 -1.27 0.02 -1.26 0.19 -0.92 0.39 -0.52 0.51 -0.48 1.95 -0.1 0.72 -0.18 0.65 -0.18 0.73 -0.18 0.81 -0.21 1.29 -0.03 0.64 -0.1 0.72 -0.18 0.73 -0.19 0.65 -0.1 0.73 -0.18 0.73 -0.11 0.64 -0.17 0.73 -0.19 0.65 -0.18 0.73 -0.1 0.72 -0.16 0.97 -0.16 1.05 -0.2 1.44 -0.17 0.81 -0.33 1.94 -0.36 1.46 -0.1 0.72 -0.16 0.96 -0.07 1.04 -0.18 0.73 -0.21 1.37 -0.18 0.73 -0.19 0.65 -0.3 2.17 -0.11 0.65 -0.1 0.72 -0.18 0.73 -0.15 1.04 -0.09 0.97 -0.09 0.8 -0.32 1.93 -0.18 0.81 -0.1 0.72 -0.03 0.64 -0.02 0.72 -0.5 3.61 -0.09 0.96 -0.07 1.04 -0.1 0.81 -0.07 1.04 -0.16 0.96 -0.1 0.73 -0.03 0.71 -0.4 2.9 -0.03 0.63 -0.1 0.73 -0.02 0.72 0.13 0.62 0.44 0.52 0.73 0.26 0.88 0.09 0.48 0.04 0.87 -0.07 0.87 -0.15 0.7 -0.13 0.53 -0.29 0.52 -0.43 0.19 -0.66 0.1 -0.72 0.08 -0.96 0.08 -1.04 0.09 -0.8 0.03 -0.72 0.18 -0.65 0.03 -0.72 0.09 -0.8 0.08 -0.96 0.08 -1.04 0.17 -0.81 0.08 -0.96 0.08 -1.04 0.02 -0.71 0.41 -2.9 0.17 -0.73 0.03 -0.71 0.1 -0.73 0.02 -0.71 0.32 -1.94 0.18 -0.8 0.1 -0.73 0.03 -0.64 0.2 -1.44 0.18 -0.65 0.2 -0.5 0.39 -0.11 0.49 0.2 0.52 0.52 0.59 0.43 0.59 0.35 0.73 0.26 0.66 0.26 0.74 0.26 0.65 0.19 0.72 0.1 0.72 0.02 0.87 0.01 2.77 -0.22 1.39 -0.43 0.77 -0.3 0.46 -0.2 0.78 -0.3 0.68 -0.37 0.61 -0.37 0.68 -0.45 0.37 -0.27 0.68 -0.53 0.59 -0.52 0.52 -0.44 0.51 -0.52 0.51 -0.6 0.43 -0.59 0.52 -0.44 0.62 -0.21 0.64 -0.05 0.72 0.18 0.73 0.1 0.71 0.03 0.79 -0.07 0.71 -0.13 0.77 -0.3 1.01 -0.32 0.84 -0.39 0.69 -0.29 0.6 -0.45 0.53 -0.36 0.67 -0.61 0.67 -0.53 0.59 -0.52 1.16 -1.37 0.43 -0.59 0.51 -0.59 0.7 -1.17 0.27 -0.66 0.34 -0.74 0.42 -0.67 0.21 -0.42 0.41 -0.74 0.27 -0.66 0.19 -0.57 0.18 -0.73 -0.01 -0.17 0.1 -0.29 0.31 -0.83 0.31 -0.9 0.3 -0.99 0.25 -0.74 0.3 -0.91 0.3 -0.98 0.17 -0.73 0.18 -0.66 0.16 -0.73 0.52 -1.96 0.17 -0.74 0.1 -0.64 0.08 -0.73 0.17 -0.73 0.09 -0.73 0.24 -0.74 0.62 -0.22 0.67 0.41 0.53 0.51 1.4 1.29 0.54 0.59 0.91 1.18 0.25 0.93 -0.12 1.21 -0.3 0.9 -0.75 1.35 -0.52 1.17 -0.41 0.67 -0.54 0.93 -0.39 0.92 -0.32 0.75 -0.48 0.84 -0.46 0.92 -0.33 0.75 -0.38 0.91 -0.31 0.91 -0.25 0.74 -0.17 0.65 -0.17 0.74 -0.03 2.87 0.07 0.71 0.15 0.7 0.22 0.69 0.24 0.77 0.23 0.7 0.38 0.6 0.38 0.68 0.45 0.51 0.54 0.58 0.52 0.43 0.59 0.42 1.27 0.67 0.82 0.31 0.66 0.18 1.6 0.16 1.04 -0.03 1.81 -0.17 0.77 -0.24 0.62 -0.22 0.68 -0.31 0.6 -0.37 0.68 -0.39 1.2 -0.76 0.66 -0.54 0.59 -0.53 0.85 -1.04 0.51 -0.53 0.83 -1.2 0.48 -0.84 0.54 -0.93 0.82 -1.36 0.66 -1.34 0.33 -0.74 0.28 -0.43 0.32 -0.75 0.66 -1.34 0.51 -1.32 0.33 -0.67 0.25 -0.66 0.43 -1.21 -0.04 0.2 -0.13 1.05 -0.13 0.97 -0.15 0.81 -0.06 0.96 0.04 1.03 0 0.8 0.11 1.02 0.22 1.26 0.27 1 0.16 0.78 0.35 1 0.6 1.13 0.57 0.81 0.46 0.59 0.45 0.51 1.21 0.83 0.59 0.33 0.66 0.17 0.73 0.16 0.97 0.13 0.97 0.06 0.79 -0.01 1.4 -0.31 1 -0.35 1.22 -0.53 1.12 -0.68 0.81 -0.65 0.58 -0.46 0.51 -0.45 0.5 -0.53 0.42 -0.53 0.5 -0.53 0.34 -0.59 0.41 -0.61 0.33 -0.59 0.42 -0.6 0.66 -1.19 0.66 -1.35 0.33 -0.59 0.25 0.13 0.03 0.96 0.03 1.03 0.08 0.78 0.19 1.02 0.34 0.92 0.32 0.68 0.64 0.81 0.64 0.73 0.6 0.41 0.59 0.33 0.74 0.16 0.97 0.14 0.95 -0.03 0.79 -0.08 0.69 -0.24 0.69 -0.31 0.9 -0.5 0.82 -0.48 0.67 -0.47 0.59 -0.47 1.99 -2.13 0.43 -0.52 0.41 -0.6 0.75 -1.2 0.41 -0.6 0.4 -0.68 0.41 -0.61 0.33 -0.67 0.25 -0.66 0.32 -0.68 0.34 -0.59 0.65 -1.34 0.24 -0.67 0.24 -0.74 0.25 -0.67 0.33 -0.59 0.31 -0.83 0.12 -0.41 0.3 -0.83 0.24 -0.75 -0.16 -0.77 -0.72 -0.72 -0.96 -0.06 -0.66 0.47 -1.24 3.32 -0.32 0.68 -0.25 0.66 -1.06 2.03 -0.1 0.49 -0.41 0.68 -0.32 0.67 -0.67 1.19 -0.83 1.2 -0.83 1.13 -0.49 0.61 -1.02 0.91 -0.66 0.47 -0.92 0.42 -1.19 0.05 -0.82 -0.31 -0.47 -0.59 -0.19 -1.01 -0.05 -1.19 0.09 -1.37 0.11 -1.21 0.07 -0.88 0.07 -0.8 0.13 -0.97 0.17 -1.38 0.08 -0.72 0.14 -0.97 0.02 -0.49 0.08 -0.8 0.31 -1.47 0.09 -0.65 0.16 -0.73 0.16 -1.45 0.16 -0.74 0.08 -0.72 0.17 -0.66 -0.15 -0.7 -0.37 -0.44 -0.67 -0.32 -1.33 -0.5 -0.73 -0.08 -0.71 0 -0.7 0.24 -0.74 0.48 -0.4 0.76 -0.15 0.81 -0.22 0.9 -0.3 1.63 -0.22 0.9 -0.16 0.73 -0.17 0.66 -0.24 0.74 -0.09 0.57 -0.24 0.74 -0.73 2.15 -0.26 0.51 -0.44 1.08 -0.38 0.92 -0.97 2.02 -0.34 0.59 -0.74 1.28 -0.33 0.59 -0.41 0.6 -0.34 0.6 -0.41 0.6 -0.5 0.53 -0.42 0.53 -1 1.06 -1.19 0.77 -0.69 0.31 -1.01 0.19 -0.96 -0.05 -0.75 -0.24 -0.52 -0.42 -0.46 -0.59 -0.39 -0.6 -0.31 -0.68 -0.16 -0.78 -0.24 -2.2 0 -2.16 0.15 -0.81 0.25 -2.18 0.24 -0.66 0.24 -0.74 0.32 -1.47 0.32 -0.68 0.74 -1.99 0.33 -0.67 0.33 -0.59 0.83 -1.21 0.33 -0.59 0.42 -0.61 0.48 -0.69 0.28 -0.35 0.57 -0.62 0.5 -0.53 0.51 -0.45 0.59 -0.46 0.51 -0.46 0.73 -0.56 0.75 -0.48 1.89 -0.92 1 -0.35 0.78 -0.16 0.54 -0.14 1.57 -0.17 0.81 0.07 0.81 0.16 1.37 0.16 0.65 0.09 0.74 0.24 0.67 0.25 0.58 0.17 0.67 0.33 0.75 0.32 0.68 0.4 0.66 0.17 0.62 -0.15 0.81 -0.64 0.76 -1.04 0.19 -1.14 -0.25 -0.85 -0.53 -0.5 -0.6 -0.41 -0.6 -0.34 -0.6 -0.41 -3.3 -1.07 -0.9 -0.15 -0.72 -0.08 -1.77 -0.12 -1.83 0.03 -1.58 0.1 -0.95 0.1 -0.7 0.16 -1.95 0.37 -0.76 0.32 -0.92 0.34 -0.91 0.42 -0.74 0.47 -0.82 0.57 -0.9 0.5 -0.68 0.39 -0.51 0.45 -0.58 0.46 -1.01 0.99 -0.8 0.73 -0.63 0.78 -1 1.07 -0.48 0.68 -0.28 0.35 -0.9 1.3 -0.41 0.6 -0.67 1.19 -0.33 0.67 -0.33 0.59 -0.33 0.68 -1.48 3.98 -0.16 0.74 -0.16 0.46 0.04 -0.19 -0.09 -0.87 -0.79 -0.72 -1.04 -0.13 -0.68 0.46 -0.25 0.67 -0.17 0.65 -0.25 0.66 -0.39 0.92 -0.19 0.49 -0.33 0.75 -0.25 0.66 -0.33 0.67 -0.32 0.75 -0.34 0.59 -1 2.01 -1.25 1.8 -0.41 0.67 -0.43 0.53 -0.51 0.52 -0.58 0.54 -1.1 0.9 -0.52 0.45 -0.68 0.39 -0.68 0.3 -0.7 0.23 -1.49 0.15 -0.81 -0.08 -0.67 -0.33 -0.6 -0.42 -0.46 -0.67 -0.46 -0.59 -0.47 -1.55 -0.08 -0.78 0.01 -0.72 0.09 -0.73 0.08 -0.8 0.09 -0.73 0.17 -0.65 0.17 -0.73 1.07 -2.82 0.33 -0.67 0.41 -0.67 0.34 -0.67 0.41 -0.68 0.34 -0.59 0.33 -0.67 0.42 -0.6 0.66 -1.34 0.42 -0.6 0.25 -0.66 0.17 -0.73 0.01 -0.72 -0.34 -1 -0.33 -0.92 -0.31 -0.69 -0.91 -1.18 -0.53 -0.51 -0.6 -0.42 -0.61 -0.57 -0.36 -0.37 -0.61 -0.57 -1.13 -0.93 -0.6 -0.41 -0.97 -0.94 -0.61 -0.58 -0.6 -0.42 -0.6 -0.49 -0.45 -0.52 -0.22 -0.61 -0.07 -0.63 0.08 -0.81 -0.21 -2.12 -0.31 -0.69 -0.37 -0.6 -0.52 -0.43 -0.67 -0.33 -0.73 -0.09 -0.71 0.07 -0.69 0.23 -0.6 0.38 -0.51 0.53 -0.41 0.6 -0.34 0.59 -0.25 0.74 -0.09 0.72 0.08 0.71 0.14 0.7 0.92 2.06 0.76 1.2 0.22 0.62 0.07 0.71 -0.08 0.8 -0.17 0.73 -0.08 0.73 -0.1 0.64 -0.09 0.73 -0.24 0.74 -0.09 0.72 -0.16 0.74 -0.09 0.72 -0.49 1.48 -0.18 0.66 -0.16 0.73 -0.25 0.74 -0.16 0.74 -0.26 0.66 -0.23 0.82 -0.19 0.49 -0.49 1.48 -0.17 0.74 -0.02 0.09zm-16.33 5.51l-0.41 0.75 -0.77 0.38 -1.08 0.32 -0.93 0.4 -0.51 0.59 -0.27 0.58 -0.1 0.72 0.13 0.63 0.3 0.69 0.45 0.76 0.22 0.78 -0.27 0.58 -0.51 0.51 -0.6 0.45 -1.12 0.88 -0.61 0.37 -0.7 0.21 -0.62 0.21 -0.7 0.22 -0.7 0.13 -0.78 0.15 -1.44 -0.05 -0.96 -0.16 -1.06 -0.23 -0.73 -0.26 -0.59 -0.35 -0.59 -0.43 -0.59 -0.51 -0.44 -0.44 -0.21 -0.62 0.03 -0.72 0.15 -1.04 0.3 -1.3 0.21 -1.29 0.07 -1.04 0.19 -0.73 0.15 -1.04 0.22 -1.21 0.16 -1.05 0.09 -0.8 0.16 -0.97 0.42 -1.7 0.24 -1.05 0.29 -1.22 0.33 -0.9 0.42 -0.67 1.02 -1.19 0.52 -0.52 0.59 -0.45 0.52 -0.51 0.68 -0.45 1.36 -0.83 0.46 -0.2 1.53 -0.75 0.78 -0.22 0.54 -0.21 0.71 -0.13 0.78 -0.07 0.64 0.03 0.73 0.1 0.73 0.26 0.76 0.58 0.69 0.66 0.46 0.68 0.21 0.69 0.21 0.62 0.13 0.71 0.06 0.71 0.14 0.78 -0.08 2.87 -0.11 0.72 -0.1 0.65 -0.18 0.73 -0.11 0.72 -0.1 0.65 -0.36 1.45 -0.19 0.66 -0.26 0.73zm111.81 -16.73l-1.04 -0.04 -0.87 0.74 -0.38 0.84 -0.32 0.68 -0.3 0.83 -0.15 0.74 -0.24 0.67 -0.32 0.67 -0.33 0.6 -0.39 0.68 -0.32 0.68 -0.25 0.67 -0.32 0.59 -0.88 1.38 -0.66 1.12 -0.34 0.52 -0.49 0.61 -1.98 2.15 -1.77 1.17 -0.85 0.26 -0.79 0.09 -0.88 -0.05 -1.16 -0.35 -0.93 -0.45 -0.46 -0.5 -0.39 -0.67 -0.32 -0.68 -0.27 -0.93 -0.28 -1 -0.26 -2.2 -0.01 -1.44 0.04 -1.04 -0.04 -0.95 0.15 -1.46 0.14 -0.81 0.14 -0.89 0.1 -1.13 0.03 -0.49 0.1 -1.12 0.17 -1.3 0.15 -1.37 0.25 -1.31 0.16 -1.37 0.16 -1.3 0.21 -0.98 0.16 -0.66 0.43 -0.37 2.91 -0.34 0.72 -0.01 0.87 -0.1 2.11 -0.33 0.78 -0.17 0.69 -0.24 0.68 -0.32 0.5 -0.46 0.33 -0.6 0.15 -0.73 -0.12 -1.03 -0.26 -0.84 -0.6 -0.41 -1.04 0.04 -2.43 0.29 -1.1 0.21 -1.32 0.24 -0.79 0.09 -0.88 -0.06 -0.52 -0.33 -0.07 -0.56 0.16 -0.65 0.24 -0.67 0.08 -0.73 0.35 -1.71 0.34 -1.24 0.19 -1.06 0.15 -0.73 0.16 -0.66 0.56 -2.7 0.15 -0.81 0.1 -0.49 0.14 -0.82 0.27 -1.07 0.35 -1.16 0.27 -1.07 0.07 -0.72 -0.34 -0.84 -0.69 -0.48 -0.76 -0.31 -1.05 -0.11 -0.96 -0.05 -0.8 0.02 -0.68 0.24 -0.59 0.47 -0.32 0.59 -0.24 0.75 -0.15 0.73 -0.08 0.65 -0.23 0.75 -0.24 0.66 -0.16 0.74 -0.16 0.66 -0.15 0.73 -0.23 0.75 -0.16 0.66 -0.31 1.47 -0.24 0.66 -0.15 0.74 -0.15 1.45 -0.3 1.48 -0.16 0.65 -0.24 0.75 -0.24 0.66 -0.15 0.74 -0.08 0.65 -0.07 0.8 -0.25 0.59 -0.76 0.33 -1.17 0.14 -1.19 0.06 -1.02 0.2 -0.5 0.46 -0.25 0.59 -0.08 0.64 0.17 0.78 0.24 0.69 0.63 0.64 0.83 0.23 0.8 0.06 0.64 0 0.57 0.1 0.28 0.36 0.08 0.63 -0.31 1.47 -0.19 1.06 -0.05 0.97 -0.07 0.72 -0.16 0.74 -0.07 0.72 -0.15 0.74 -0.08 0.73 -0.12 0.97 -0.11 1.05 -0.15 1.45 0 0.72 -0.07 0.73 0.02 3.58 0.09 0.71 0.01 2.15 0.09 0.71 0.17 0.78 0.08 0.71 0.16 0.7 0.09 0.7 0.23 0.62 0.24 0.68 0.32 0.69 0.31 0.6 0.78 1.18 0.46 0.59 0.46 0.5 1.22 0.81 0.67 0.32 0.91 0.29 0.98 0.21 0.73 0.07 0.72 0 2.2 -0.26 0.7 -0.17 0.61 -0.23 0.68 -0.32 0.67 -0.4 0.9 -0.5 0.81 -0.58 0.57 -0.54 0.99 -1.08 1 -0.99 1.32 -1.67 0.41 -0.61 0.33 -0.6 0.32 -0.67 0.81 -1.22 0.39 -0.76 0.25 -0.59 0.49 -1.25 0.32 -0.68 0.25 -0.58 0.63 -1.36 0.24 -0.66 0.24 -0.75 0.74 -1.84 0.22 -0.82 -0.11 -0.87 -0.72 -0.71zm25.57 10.62l0.51 -0.47 0.52 -0.3 0.63 -0.01 0.65 0.08 0.72 -0.01 0.87 -0.03 2.79 -0.68 0.61 -0.23 0.67 -0.41 1.18 -0.79 0.51 -0.38 0.56 -0.55 0.5 -0.47 0.49 -0.54 0.42 -0.53 0.88 -1.23 0.41 -0.53 0.32 -0.6 0.39 -0.69 0.33 -0.6 0.23 -0.67 0.62 -1.36 0.33 -0.6 0.7 -2.01 0.15 -0.73 -0.19 -0.86 -0.72 -0.62 -0.97 -0.04 -0.65 0.48 -0.38 0.77 -0.18 0.5 -0.54 1.43 -0.46 1.33 -0.33 0.61 -0.31 0.67 -0.32 0.6 -0.81 1.23 -0.89 1.15 -0.49 0.54 -1.15 0.94 -0.51 0.39 -0.75 0.41 -0.69 0.25 -0.54 0.15 -0.85 0.19 -0.47 0.06 -0.64 0 -0.15 -0.54 0.28 -0.91 0.53 -1.51 0.36 -0.92 0.15 -0.74 0.2 -0.91 0.21 -0.82 0.14 -0.82 0.17 -1.14 0.17 -2.41 -0.02 -0.8 -0.03 -0.88 0.04 -0.96 -0.35 -2.75 -0.5 -1.37 -0.16 -0.62 -0.17 -0.7 -0.32 -0.68 -1.16 -1.61 -0.56 -0.56 -0.54 -0.49 -0.45 -0.42 -0.61 -0.41 -0.93 -0.36 -1.52 -0.68 -0.67 -0.24 -0.74 -0.14 -0.72 -0.07 -1.05 -0.03 -1.27 0.01 -1.81 0.23 -0.7 0.17 -0.77 0.18 -0.69 0.24 -0.76 0.34 -0.45 0.22 -0.82 0.42 -0.45 0.22 -0.75 0.41 -0.59 0.4 -0.8 0.58 -0.8 0.66 -0.64 0.56 -0.57 0.55 -0.5 0.47 -0.98 1.08 -0.89 1.15 -0.4 0.61 -0.63 1.36 -0.4 0.61 -0.33 0.6 -0.39 0.69 -0.31 0.68 -0.35 1 -0.27 0.99 -0.15 0.74 -0.23 0.67 -0.23 0.75 -0.14 0.74 -0.16 0.65 -0.06 0.73 -0.06 0.81 -0.06 1.44 -0.06 0.73 -0.08 0.65 -0.07 0.72 0.28 2.2 0.01 0.72 0.18 0.78 0.34 1.39 0.5 1.38 0.65 1.35 0.47 0.58 0.4 0.59 0.47 0.58 1.08 0.98 0.61 0.4 1.36 0.62 0.67 0.24 0.73 0.14 0.59 0.17 0.73 0.14 0.9 0.13 1.43 -0.02 0.71 -0.09 0.85 -0.19 0.71 -0.09 0.62 -0.16 0.77 -0.26 0.45 -0.22 1.38 -0.41 0.76 -0.34 1.35 -0.65 0.59 -0.39 1.16 -0.95 0.59 -0.39 1.15 -0.95 0.98 -1.08 0.4 -0.61zm-17.01 -6.94l-0.09 -0.71 -0.01 -0.71 0.14 -0.74 0.08 -0.65 0.29 -1.47 0.08 -0.65 0.14 -0.74 1.17 -3.34 0.32 -0.68 0.64 -1.2 0.31 -0.68 0.41 -0.61 0.32 -0.6 0.48 -0.62 0.49 -0.54 0.7 -0.73 0.65 -0.56 0.58 -0.48 0.73 -0.57 0.67 -0.33 0.61 -0.23 0.79 -0.1 1.03 -0.06 1.21 0.09 0.99 0.27 0.69 0.39 0.65 0.72 0.62 1.12 0.49 1.29 0.24 1.25 0.18 2.69 -0.07 1.37 -0.02 1.04 -0.2 2.18 -0.59 2.95 -0.15 0.66 -0.26 0.51 -0.46 0.14 -0.57 -0.09 -0.73 -0.06 -0.69 0.17 -0.58 0.47 -0.49 0.54 -0.19 0.98 -0.04 0.97 0.25 0.68 0.47 0.58 0.38 0.51 0.06 0.47 -0.24 0.6 -0.57 0.55 -0.49 0.54 -0.58 0.47 -0.66 0.48 -0.58 0.4 -0.67 0.4 -0.77 0.26 -0.77 0.18 -1.02 0.13 -1.22 -0.16 -0.92 -0.29 -0.7 -0.47 -0.65 -0.71 -0.7 -1.11 -0.47 -1.22 -0.32 -1.24 -0.21 -1.01 -0.18 -0.77 -0.04 -0.96 0.04 -0.96z"></path> <path class="fil4" d="M405.55 46.46c8.25,0 12.34,3.07 12.34,9.15l0 1.27c-11.73,9.39 -21.84,24.01 -30.39,43.81 -8.55,19.81 -12.76,40.03 -12.76,60.74 0,8.48 0.54,14.86 1.74,19.32 1.15,4.39 1.75,6.68 1.75,6.8 -15.89,24.68 -27.15,49.47 -33.83,74.39 -2.71,10.11 -4.09,19.86 -4.09,29.37 0,9.45 3.13,19.08 9.39,28.83l0 0.67c0,6.62 -6.68,9.87 -19.92,9.87 -5.66,0 -10.41,-1.63 -14.33,-4.94 -6.2,-5.36 -10.89,-10.47 -14.08,-15.29 -3.43,8.31 -10.17,14.39 -20.29,18.12 -4.03,1.44 -8.18,2.11 -12.51,2.11 -4.34,0 -7.83,-0.85 -10.42,-2.59 -2.58,-1.81 -4.45,-4.46 -5.65,-7.95 7.04,-9.87 10.59,-21 10.59,-33.34 0,-7.04 -1.57,-16.97 -4.76,-29.79 -3.19,-12.83 -6.56,-23.54 -10.23,-32.21 -3.67,-8.6 -6.98,-14.92 -10.05,-18.83 -3.07,-3.98 -5.9,-7.11 -8.55,-9.45 -2.65,-2.35 -4.69,-4.1 -6.2,-5.18 -1.44,-1.14 -2.16,-2.23 -2.16,-3.31 0,-1.02 0.48,-2.17 1.38,-3.43 0.96,-1.21 1.99,-2.47 3.19,-3.79 3.07,-3.49 4.58,-10.6 4.58,-21.13 0,-21.07 -3.92,-41.11 -11.8,-60.13 -7.89,-19.08 -17.64,-33.28 -29.31,-42.67l0 -0.72c0,-6.5 5.9,-9.7 17.57,-9.7 11.68,0 23.42,6.14 35.15,18.48 6.14,-12.34 15.59,-18.48 28.41,-18.48 6.8,0 11.44,0.85 13.78,2.65 3.86,2.95 6.26,5.54 7.23,7.77 -7.41,8.91 -11.14,19.44 -11.14,31.54 0,12.09 4.94,42.25 14.75,90.4 9.81,48.09 14.99,74.15 15.59,78.19 6.14,-19.51 9.15,-32.99 9.15,-40.33 0,-7.34 -0.37,-12.88 -1.15,-16.61 -0.72,-3.8 -1.5,-6.38 -2.34,-7.89 -0.85,-1.44 -1.27,-2.47 -1.27,-3.07 10.71,-17.87 18.36,-39.54 22.93,-65.06 1.81,-10.23 2.65,-21.55 2.65,-34.07 0,-12.46 -3.67,-23.47 -11.07,-33.1 0.12,-0.24 0.18,-0.6 0.3,-1.09 0.12,-0.48 0.6,-1.32 1.32,-2.52 0.78,-1.27 1.63,-2.35 2.59,-3.31 2.59,-2.35 5.84,-3.5 9.81,-3.5 3.91,0 7.46,0.67 10.71,1.93 3.25,1.33 5.78,2.83 7.71,4.58 3.85,3.91 6.56,7.88 8.06,11.97 4.88,-4.81 10.72,-9.09 17.64,-12.82 6.98,-3.79 12.94,-5.66 17.99,-5.66zm37.92 0c11.56,0 21.25,6.14 29.14,18.48 0.36,-0.42 0.78,-1.08 1.32,-1.92 0.54,-0.79 1.75,-2.29 3.67,-4.52 1.99,-2.16 3.97,-4.03 6.08,-5.72 5.54,-4.21 11.26,-6.32 17.15,-6.32 5.84,0 10.36,0.85 13.49,2.65 3.13,1.75 4.87,3.43 5.35,5.12l0.73 2.65c-8.13,7.88 -13.73,16.13 -16.74,24.86 -3.07,8.66 -4.63,19.74 -4.63,33.22 0,13.48 0.48,24.14 1.44,32.08 0.91,7.94 2.11,14.02 3.49,18.24 1.45,4.27 3.01,7.82 4.7,10.71 1.68,2.89 3.25,4.82 4.69,5.9 3.25,2.71 4.94,4.69 4.94,5.96 0,1.32 -0.66,2.53 -1.99,3.73 -1.26,1.2 -2.83,2.95 -4.75,5.3 -1.87,2.34 -3.73,5.47 -5.6,9.33 -4.63,9.27 -6.92,23.83 -6.92,43.57 0,19.74 1.56,34.37 4.63,43.82 3.01,9.45 8.61,18.3 16.74,26.54 0,4.22 -3.32,7.41 -9.88,9.51 -2.46,0.73 -5.89,1.03 -10.35,1.03 -4.39,0 -9.03,-1.69 -13.84,-5.12 -4.82,-3.37 -8.25,-6.74 -10.35,-9.99l-3.37 -5.12c-0.49,1.15 -1.87,3.19 -4.22,6.14 -2.41,2.95 -4.63,5.3 -6.74,7.04 -5.6,4.7 -10.89,7.05 -15.77,7.05 -4.87,0 -8.55,-0.3 -11.01,-1.03 -2.47,-0.72 -4.28,-1.62 -5.48,-2.65 -2.59,-2.34 -4.03,-4.63 -4.39,-6.86 8.12,-8.24 13.66,-17.09 16.73,-26.54 3.07,-9.45 4.57,-21.37 4.57,-35.63 0,-14.27 -0.6,-25.46 -1.92,-33.59 -1.27,-8.12 -2.89,-14.14 -4.76,-18.05 -1.86,-3.98 -3.79,-7.11 -5.72,-9.45 -1.92,-2.35 -3.55,-4.1 -4.87,-5.3 -1.27,-1.2 -1.93,-2.29 -1.93,-3.37 0,-1.02 0.66,-2.17 1.93,-3.31 1.32,-1.2 2.95,-2.89 4.87,-5.12 1.93,-2.22 3.86,-5.35 5.72,-9.39 4.46,-9.51 6.68,-24.49 6.68,-44.96 0,-20.46 -1.5,-35.03 -4.57,-43.69 -3.07,-8.73 -8.61,-16.98 -16.73,-24.86 0,-4.28 3.25,-7.35 9.69,-9.39 2.58,-0.66 5.53,-1.03 8.78,-1.03zm220.96 60.68c0,-18.12 -7.17,-27.21 -21.49,-27.21 -12.7,0 -20.34,4.21 -22.93,12.52 -1.21,3.67 -1.75,9.69 -1.75,18.12 0,8.36 0.24,16.91 0.66,25.58 0.49,8.6 1.15,15.47 1.99,20.58 0.78,5.12 1.69,9.51 2.59,13.18 0.96,3.61 1.93,6.32 2.83,8.07 0.96,1.8 1.86,3.25 2.65,4.45 1.8,2.59 2.64,4.52 2.64,5.78 0,1.32 -0.66,3.01 -2.1,5.12 -1.39,2.1 -2.95,4.87 -4.58,8.3 -4.45,9.03 -6.68,27.87 -6.68,56.4 0,17.75 1.75,28.83 5.24,33.16 3.91,4.7 9.87,7.05 17.81,7.05 7.89,0 13.01,-1.21 15.29,-3.68 2.29,-2.47 3.91,-4.57 4.82,-6.26 0.96,-1.68 1.68,-4.39 2.16,-8 0.55,-5.18 0.85,-12.4 0.85,-21.55l0 -2.29c0,-27.98 -2.23,-46.34 -6.68,-55.19 -1.69,-3.19 -3.19,-5.84 -4.58,-8 -1.44,-2.17 -2.17,-3.92 -2.17,-5.12 0,-1.26 0.49,-2.47 1.45,-3.73 0.96,-1.21 2.05,-3.07 3.37,-5.6 1.26,-2.53 2.59,-6.14 3.85,-10.71 3.19,-11.14 4.76,-31.48 4.76,-60.97zm-122.19 213c14.21,-13.18 21.31,-34.06 21.31,-62.59 0,-24.62 -2.23,-41.65 -6.68,-51.16 -2.95,-6.2 -5.78,-10.54 -8.49,-12.88 -2.71,-2.35 -4.03,-4.1 -4.03,-5.18 0,-1.14 0.66,-2.29 1.93,-3.55 1.32,-1.21 2.95,-3.01 4.87,-5.36 1.93,-2.35 3.85,-5.66 5.72,-9.87 4.45,-9.87 6.68,-25.04 6.68,-45.44 0,-20.41 -1.56,-34.79 -4.63,-43.28 -3.13,-8.48 -8.67,-16.43 -16.68,-23.95 0,-4.28 3.25,-7.35 9.69,-9.39 2.59,-0.66 6.14,-1.03 10.66,-1.03 4.51,0 9.39,1.45 14.62,4.4 5.24,2.95 9.03,5.9 11.38,8.85l3.55 4.39c10.35,-11.8 30.1,-17.64 59.23,-17.64 22.15,0 38.76,5.18 49.89,15.53 14.27,13.25 21.37,33.71 21.37,61.34 0,31.54 4.57,52.06 13.72,61.75 1.09,1.14 1.63,2.29 1.63,3.31 0,1.08 -0.54,2.17 -1.63,3.25 -1.02,1.14 -2.28,2.89 -3.79,5.24 -1.44,2.34 -2.95,5.53 -4.45,9.51 -3.67,9.51 -5.48,26.36 -5.48,50.43 0,24.08 -6.2,42.44 -18.6,55.02 -12.4,12.58 -29.49,18.84 -51.22,18.84 -28.95,0 -49.17,-6.74 -60.67,-20.23 -5.06,8.43 -11.92,14.51 -20.64,18.12 -3.5,1.44 -7.53,2.11 -11.98,2.11 -4.46,0 -8.25,-0.85 -11.32,-2.59 -3.01,-1.81 -4.81,-3.55 -5.23,-5.3l-0.73 -2.65zm376.12 -7.94c-6.2,12.34 -15.71,18.48 -28.41,18.48 -6.68,0 -11.25,-0.79 -13.72,-2.47 -3.79,-2.77 -6.2,-5.42 -7.22,-7.89 7.4,-8.96 11.07,-20.28 11.07,-34.06 0,-11.86 -0.78,-20.59 -2.34,-26.06 -1.63,-5.54 -3.37,-11.68 -5.3,-18.36 -1.93,-6.68 -3.73,-13.24 -5.36,-19.56l-1.26 0 -40.39 0.18c-0.72,2.89 -1.92,7.82 -3.67,14.62 -1.8,6.8 -3.01,11.98 -3.73,15.53 -2.35,10.35 -3.55,20.47 -3.55,30.46 0,15.17 4.33,27.56 12.88,37.25 -0.12,0.24 -0.24,0.55 -0.36,1.03 -0.06,0.48 -0.54,1.32 -1.33,2.59 -0.72,1.2 -1.56,2.28 -2.52,3.25 -2.59,2.34 -5.72,3.49 -9.45,3.49 -3.68,0 -6.93,-0.61 -9.7,-1.93 -2.76,-1.26 -4.87,-2.83 -6.44,-4.57 -3.49,-3.74 -5.89,-7.77 -7.22,-11.98 -4.81,4.81 -10.71,9.09 -17.63,12.88 -6.92,3.73 -12.94,5.6 -18,5.6 -8.19,0 -12.34,-3.01 -12.34,-9.15l0 -1.21c9.63,-7.64 16.98,-15.83 22.03,-24.43 5.06,-8.67 9.93,-21.37 14.69,-38.16l9.15 -32.32c-7.17,1.8 -13.61,4.87 -19.21,9.2 -1.2,0 -2.28,-0.9 -3.3,-2.64 -0.97,-1.75 -1.45,-3.92 -1.45,-6.38 0,-5.48 4.09,-10.36 12.34,-14.63 -2.17,-0.72 -4.27,-2.17 -6.38,-4.39 -3.97,-3.92 -5.96,-7.11 -5.96,-9.63 0,-2.53 0.12,-4.4 0.48,-5.6 0.36,-1.26 0.72,-2.17 1.08,-2.77 0.91,-1.14 1.99,-1.87 3.19,-2.11 7.29,5.66 16.32,9.21 27.15,10.78l20.46 -72.29c4.58,-16.25 6.87,-29.19 6.87,-38.82 0,-9.63 -3.13,-19.32 -9.33,-29.07l0 -0.72c0,-6.62 6.62,-9.88 19.92,-9.88 6.8,0 14.2,4.34 22.21,13.07 1.74,1.98 3.55,4.39 5.48,7.22 3.37,-8.37 10.11,-14.45 20.1,-18.18 4.09,-1.44 8.12,-2.11 12.16,-2.11 3.97,0 7.04,0.85 9.15,2.65 2.1,1.75 3.67,4.4 4.57,7.95 -3.37,9.87 -5.12,21.12 -5.12,33.76 0,12.64 1.09,23.9 3.19,33.77 2.11,9.87 4.82,19.14 8.01,27.75 3.25,8.66 6.32,14.98 9.21,18.96 2.89,3.97 5.54,7.16 8,9.45 2.47,2.28 4.46,3.97 5.9,5.11 1.51,1.09 2.23,2.17 2.23,3.25 0,1.09 -0.48,2.23 -1.45,3.43 -0.9,1.27 -1.98,2.53 -3.13,3.8 -3.07,3.55 -4.63,10.59 -4.63,21.18 0,19.86 4.09,39.61 12.28,59.29 8.18,19.74 17.75,34.18 28.83,43.51l0 0.67c0,6.5 -5.84,9.69 -17.58,9.69 -11.67,0 -23.41,-6.14 -35.15,-18.48zm-56.94 -113.4c-9.51,-38.58 -14.56,-59.46 -15.16,-62.77 -4.94,19.98 -9.99,40.92 -15.17,62.77 5.96,0 12.46,0 19.38,0l10.95 0z"></path> <path class="fil0" d="M931.23 289.69c-2.84,3.37 -5.75,6.67 -8.75,9.9l0 0.01c-0.13,0.13 -0.24,0.24 -0.37,0.37 -8.66,9.32 -17.95,18.04 -27.78,26.11 -8.81,7.24 -10.07,20.28 -2.82,29.07 7.23,8.78 20.24,10.04 29.03,2.82 4.06,-3.34 8.05,-6.77 11.96,-10.31 19.06,-1.18 39.83,-3.03 58.67,0.8 1.04,0.32 2.07,0.64 3.11,0.95 1.01,0.3 2.01,0.57 3.03,0.81 4.75,1.49 10.03,0.8 14.42,-2.2 6.64,-4.53 9.12,-12.88 6.03,-20.3 -0.66,-1.57 -1.5,-3.17 -2.32,-4.66 -0.88,-1.6 -1.77,-3.15 -2.79,-4.66 -0.28,-0.43 -0.54,-0.78 -0.86,-1.17 -1.14,-1.42 -2.33,-2.82 -3.55,-4.17 11.53,-6.21 21,-16.57 28.32,-27.14 3.18,-4.6 6.11,-9.44 8.68,-14.4 0.84,-1.61 1.66,-3.26 2.39,-4.92 0.31,-0.71 0.61,-1.42 0.87,-2.15 0.55,-1.52 0.88,-3.05 1,-4.58 0.29,-3.04 -0.28,-6.09 -1.59,-8.81 6.09,-6.96 10.9,-15.18 14.66,-23.34 2.34,-5.06 4.38,-10.33 6.06,-15.65 0.54,-1.73 1.06,-3.49 1.49,-5.25 0.18,-0.75 0.36,-1.5 0.49,-2.26 0.13,-0.74 0.22,-1.48 0.26,-2.23 0.08,-1.37 0,-2.74 -0.25,-4.09 -0.46,-2.44 -1.43,-4.66 -2.78,-6.58 4.67,-7.79 7.93,-16.56 10.2,-25.07 1.44,-5.4 2.56,-10.95 3.3,-16.49 0.25,-1.81 0.46,-3.63 0.58,-5.45 0.05,-0.77 0.09,-1.54 0.1,-2.31 0,-0.75 -0.04,-1.49 -0.12,-2.23 -0.15,-1.34 -0.46,-2.65 -0.92,-3.91 -0.89,-2.45 -2.3,-4.57 -4.06,-6.28 3.41,-8.7 5.15,-18.18 5.92,-27.2 0.48,-5.61 0.62,-11.31 0.39,-16.94 -0.08,-1.84 -0.19,-3.69 -0.38,-5.52 -0.08,-0.77 -0.18,-1.54 -0.31,-2.31 -0.27,-1.53 -0.72,-2.98 -1.34,-4.32 -5.31,-11.97 -20.04,-11.08 -30.47,-8.88 -0.06,-2.73 -0.29,-5.44 -0.69,-8.12 -2.3,-15.18 -9.74,-28.75 -20.16,-39.87 -3.35,-3.58 -7.02,-6.93 -10.92,-9.9 -1.24,-0.94 -2.51,-1.86 -3.81,-2.71 -0.52,-0.34 -1.05,-0.67 -1.6,-0.98 -0.48,-0.28 -0.98,-0.54 -1.49,-0.77 -9.91,-4.57 -20.7,1.53 -23.34,10.76 -6.7,17.09 -11.28,35.53 -8.53,53.99 0.14,0.96 0.3,1.92 0.48,2.87 -4.15,-0.01 -8.36,0.35 -12.56,1.02 -4.26,0.29 -8.3,2.26 -11.32,5.69 -3.38,3.84 -4.77,8.71 -4.05,13.48 0.6,10.11 1.75,20.29 4.71,29.88 -3.39,3.12 -5.27,7.31 -5.38,11.73 -1.16,9.86 -1.76,19.89 -0.56,29.65 -3.77,2.49 -6.28,6.24 -7.14,10.51 -2.85,9.62 -5.17,19.5 -5.6,29.43 -4.22,1.78 -7.38,5.07 -8.98,9.16 -7.75,15.53 -14.06,32.09 -11.98,49.81 1.27,10.82 6.3,20.98 13.42,29.31z"></path> <g> <path class="fil4" d="M1004.98 17.62c-0.16,-0.35 24.45,14.79 28.48,41.52 3.01,19.82 -6.93,37.09 -12.07,43.78 0.16,-5.41 0.09,-11.25 -0.34,-17.33 -1.95,-28.58 -11.34,-50.66 -11.25,-50.57 -0.05,0.04 2.83,23.31 4.68,51.03 0.42,5.96 0.8,11.65 1.11,16.95 -5.3,-6.81 -16.18,-21.24 -18.81,-38.32 -3.27,-22.52 8.27,-46.74 8.2,-47.06zm-59.59 199.2c0.14,0.32 -13.14,22.12 -10.92,41.6 1.82,14.85 13.49,25.26 19.61,29.29 -0.38,-4.58 -0.8,-9.5 -1.21,-14.61 -1.84,-23.9 -3.59,-42.79 -3.55,-42.82 -0.11,0 8.41,16.2 10.74,40.33 0.49,5.14 0.64,10.21 0.56,15 5.95,-7.77 18.18,-24.33 32.94,-31.33 2.3,-1.1 4.59,-1.89 6.84,-2.44 -4.88,-1.27 -8.89,-3.32 -11.49,-4.78 4.31,-1.71 8.93,-3.79 13.7,-6.31 22.39,-11.68 38.52,-29.13 38.46,-29.08 -0.04,-0.09 -18.06,9.33 -39.91,21.26 -4.69,2.56 -9.17,5.04 -13.34,7.33 4.31,-8.53 11.12,-28.65 5.12,-43.32 -0.81,-1.95 -1.79,-3.72 -2.89,-5.33 4.22,2.18 8.22,3.52 11.06,4.21 -1.94,-4.14 -4.01,-8.58 -6.14,-13.21 -9.87,-21.66 -17.88,-38.85 -17.86,-38.89 -0.1,0.04 13.38,12.41 23.77,34.17 2.21,4.65 4.08,9.32 5.64,13.81 2.92,-9.21 8.8,-28.77 20.34,-40.35 1.79,-1.81 3.67,-3.33 5.61,-4.6 -5.02,0.44 -9.48,-0.13 -12.42,-0.62 3.48,-3.07 7.13,-6.59 10.76,-10.59 17.14,-18.6 26.41,-40.76 26.36,-40.69 -0.06,-0.07 -13.81,15.1 -30.36,33.81 -3.55,4.01 -6.94,7.87 -10.08,11.44 1.18,-9.49 0.8,-30.84 -9.84,-42.78 -14.09,-15.66 -37.59,-9.23 -37.51,-9.52 0.29,0.25 -0.43,26.04 11.15,41.71 1.39,1.85 2.93,3.49 4.57,4.94 -8.67,-2.56 -16.3,-1.93 -16.23,-2.07 0.24,0.27 -4.91,25.28 3.82,42.67 0.89,1.73 1.9,3.34 3.02,4.82 -7.82,-3.67 -14.97,-4.32 -14.88,-4.45 0.18,0.3 -9.12,23.98 -3.5,42.66 0.68,2.2 1.58,4.25 2.63,6.17 -7.3,-5.34 -14.68,-7.31 -14.57,-7.43zm15.23 68.79c5.79,-7.74 16.05,-26.5 12.67,-42.02 -0.54,-2.45 -1.36,-4.69 -2.37,-6.74 4.02,3.17 8.02,5.34 10.86,6.57 -1.2,-4.41 -2.47,-9.15 -3.78,-14.09 -6.02,-23.07 -11.01,-41.32 -10.98,-41.36 -0.11,0.02 11.08,14.48 17.61,37.71 1.38,4.96 2.43,9.89 3.19,14.58 4.47,-8.6 13.59,-26.88 26.92,-36.28 1.75,-1.25 3.53,-2.27 5.32,-3.12 -4.67,-0.49 -8.65,-1.73 -11.31,-2.67 3.96,-2.41 8.16,-5.24 12.42,-8.53 20.06,-15.28 33.01,-35.29 32.94,-35.23 -0.04,-0.08 -16.21,12.32 -35.7,27.79 -4.19,3.32 -8.18,6.52 -11.89,9.48 2.78,-9.12 6.07,-30.09 -2.34,-43.56 -1.34,-2.12 -2.87,-3.95 -4.51,-5.53 4.85,1.62 9.35,2.3 12.43,2.51 -2.61,-3.76 -5.41,-7.79 -8.31,-12 -13.45,-19.72 -24.33,-35.42 -24.32,-35.46 -0.09,0.05 15.34,10.02 29.33,29.76 2.97,4.22 5.63,8.51 7.93,12.68 1.3,-9.6 3.72,-30.01 13.07,-43.55 12.49,-18.28 35.98,-16.39 36.1,-16.1 0.44,-0.25 4.05,37.43 -11.53,55.26 -1.79,2.09 -3.68,3.81 -5.65,5.22 9.14,-1.15 16.44,0.81 16.48,0.98 0.46,-0.19 -2.46,37.17 -20.86,51.99 -1.79,1.47 -3.61,2.67 -5.45,3.64 8.77,0.58 15.21,3.57 15.22,3.73 0.49,-0.12 -8.72,36.09 -29.39,47.6 -2.38,1.37 -4.75,2.34 -7.07,3 8.98,2.01 15.19,6.33 15.17,6.5 0.51,-0.06 -14.85,34.14 -37.31,42.06 -16.4,5.98 -29.47,-3.32 -35.03,-7.9 4.56,-0.96 9.5,-2.23 14.65,-3.92 24.18,-7.77 43.11,-22.25 43.04,-22.21 -0.02,-0.09 -19.41,6.11 -43.09,14.21 -5.07,1.74 -9.94,3.44 -14.46,5z"></path> <path class="fil4" d="M904.98 339.05c-1.65,1.35 -1.88,3.79 -0.53,5.44 1.36,1.64 3.8,1.88 5.44,0.52 5.31,-4.35 10.44,-8.85 15.39,-13.5 1.68,-0.24 3.58,-0.43 5.69,-0.55 22.93,-1.42 43.99,-3.08 64.4,1.24 1.39,0.43 2.62,0.81 3.64,1.12 2.05,0.59 3.27,0.85 3.27,0.85 0,0 -0.49,-1.12 -1.53,-3.03 -0.53,-0.95 -1.17,-2.13 -2.02,-3.39 -0.94,-1.16 -2.04,-2.47 -3.32,-3.87 -0.62,-0.74 -1.38,-1.37 -2.21,-1.97 -0.85,-0.62 -1.72,-1.27 -2.61,-1.92 -0.89,-0.71 -1.94,-1.23 -3.06,-1.72 -1.11,-0.51 -2.27,-1.02 -3.48,-1.53 -1.21,-0.5 -2.6,-0.71 -3.97,-1.07 -0.7,-0.15 -1.41,-0.3 -2.12,-0.46 -0.35,-0.08 -0.71,-0.15 -1.07,-0.22 -0.38,-0.03 -0.77,-0.06 -1.15,-0.09 -3.06,-0.2 -6.26,-0.48 -9.69,-0.03 -1.71,0.18 -3.38,0.24 -5.06,0.57 -1.68,0.34 -3.34,0.68 -4.96,1.03 -0.81,0.17 -1.62,0.35 -2.42,0.52 -0.77,0.19 -1.5,0.39 -2.25,0.6 -1.49,0.4 -2.96,0.82 -4.41,1.25 -4.89,1.44 -9.47,3.03 -13.5,4.72 2.25,-2.27 4.46,-4.57 6.62,-6.9l0.18 -0.21c9.39,-10.1 18.02,-20.77 25.88,-31.91 1.22,-1.74 0.81,-4.15 -0.93,-5.38 -1.74,-1.22 -4.15,-0.81 -5.38,0.93 -7.65,10.85 -16.07,21.25 -25.22,31.11l-0.2 0.2c-9.11,9.79 -18.92,19.03 -29.42,27.65z"></path> </g> <g> <path class="fil4" d="M150.05 17.62c0.16,-0.35 -24.45,14.79 -28.48,41.52 -3.01,19.82 6.93,37.09 12.07,43.78 -0.16,-5.41 -0.09,-11.25 0.34,-17.33 1.95,-28.58 11.34,-50.66 11.25,-50.57 0.05,0.04 -2.83,23.31 -4.68,51.03 -0.42,5.96 -0.8,11.65 -1.11,16.95 5.3,-6.81 16.18,-21.24 18.81,-38.32 3.27,-22.52 -8.27,-46.74 -8.2,-47.06zm59.59 199.2c-0.14,0.32 13.13,22.12 10.92,41.6 -1.82,14.85 -13.49,25.26 -19.61,29.29 0.38,-4.58 0.8,-9.5 1.21,-14.61 1.84,-23.9 3.59,-42.79 3.55,-42.82 0.11,0 -8.41,16.2 -10.74,40.33 -0.49,5.14 -0.64,10.21 -0.56,15 -5.95,-7.77 -18.18,-24.33 -32.94,-31.33 -2.3,-1.1 -4.59,-1.89 -6.84,-2.44 4.88,-1.27 8.89,-3.32 11.49,-4.78 -4.32,-1.71 -8.93,-3.79 -13.7,-6.31 -22.39,-11.68 -38.52,-29.13 -38.45,-29.08 0.02,-0.09 18.05,9.33 39.9,21.26 4.69,2.56 9.17,5.04 13.34,7.33 -4.31,-8.53 -11.12,-28.65 -5.12,-43.32 0.81,-1.95 1.79,-3.72 2.89,-5.33 -4.22,2.18 -8.22,3.52 -11.06,4.21 1.94,-4.14 4.01,-8.58 6.14,-13.21 9.87,-21.66 17.88,-38.85 17.86,-38.89 0.1,0.04 -13.38,12.41 -23.77,34.17 -2.21,4.65 -4.08,9.32 -5.64,13.81 -2.93,-9.21 -8.81,-28.77 -20.34,-40.35 -1.79,-1.81 -3.67,-3.33 -5.61,-4.6 5.02,0.44 9.48,-0.13 12.42,-0.62 -3.48,-3.07 -7.13,-6.59 -10.76,-10.59 -17.15,-18.6 -26.41,-40.76 -26.36,-40.69 0.06,-0.07 13.81,15.1 30.36,33.81 3.55,4.01 6.93,7.87 10.08,11.44 -1.18,-9.49 -0.8,-30.84 9.84,-42.78 14.09,-15.66 37.59,-9.23 37.51,-9.52 -0.29,0.25 0.43,26.04 -11.15,41.71 -1.39,1.85 -2.93,3.49 -4.57,4.94 8.67,-2.56 16.3,-1.93 16.23,-2.07 -0.24,0.27 4.91,25.28 -3.82,42.67 -0.88,1.73 -1.91,3.34 -3.02,4.82 7.82,-3.67 14.97,-4.32 14.88,-4.45 -0.18,0.3 9.12,23.98 3.5,42.66 -0.68,2.2 -1.58,4.25 -2.63,6.17 7.3,-5.34 14.68,-7.31 14.57,-7.43zm-15.23 68.79c-5.79,-7.74 -16.05,-26.5 -12.67,-42.02 0.54,-2.45 1.36,-4.69 2.37,-6.74 -4.01,3.17 -8.02,5.34 -10.86,6.57 1.2,-4.41 2.47,-9.15 3.78,-14.09 6.02,-23.07 11.01,-41.32 10.98,-41.36 0.11,0.02 -11.08,14.48 -17.61,37.71 -1.38,4.96 -2.43,9.89 -3.19,14.58 -4.47,-8.6 -13.59,-26.88 -26.92,-36.28 -1.75,-1.25 -3.53,-2.27 -5.32,-3.12 4.67,-0.49 8.65,-1.73 11.31,-2.67 -3.96,-2.41 -8.16,-5.24 -12.42,-8.53 -20.06,-15.28 -33.01,-35.29 -32.94,-35.23 0.04,-0.08 16.21,12.32 35.7,27.79 4.18,3.32 8.18,6.52 11.89,9.48 -2.78,-9.12 -6.07,-30.09 2.34,-43.56 1.34,-2.12 2.86,-3.95 4.51,-5.53 -4.85,1.62 -9.35,2.3 -12.43,2.51 2.61,-3.76 5.41,-7.79 8.31,-12 13.45,-19.72 24.33,-35.42 24.32,-35.46 0.09,0.05 -15.34,10.02 -29.33,29.76 -2.98,4.22 -5.63,8.51 -7.93,12.68 -1.3,-9.6 -3.72,-30.01 -13.07,-43.55 -12.49,-18.28 -35.98,-16.39 -36.1,-16.1 -0.44,-0.25 -4.05,37.43 11.53,55.26 1.78,2.09 3.68,3.81 5.65,5.22 -9.14,-1.15 -16.44,0.81 -16.48,0.98 -0.46,-0.19 2.46,37.17 20.86,51.99 1.79,1.47 3.61,2.67 5.45,3.64 -8.77,0.58 -15.21,3.57 -15.22,3.73 -0.49,-0.12 8.72,36.09 29.39,47.6 2.38,1.37 4.75,2.34 7.07,3 -8.98,2.01 -15.19,6.33 -15.17,6.5 -0.52,-0.06 14.85,34.14 37.31,42.06 16.4,5.98 29.47,-3.32 35.03,-7.9 -4.56,-0.96 -9.5,-2.23 -14.65,-3.92 -24.18,-7.77 -43.11,-22.25 -43.04,-22.21 0.02,-0.09 19.41,6.11 43.09,14.21 5.07,1.74 9.94,3.44 14.46,5z"></path> <path class="fil4" d="M250.05 339.05c1.65,1.35 1.88,3.79 0.53,5.44 -1.36,1.64 -3.8,1.88 -5.44,0.52 -5.31,-4.35 -10.44,-8.85 -15.39,-13.5 -1.68,-0.24 -3.58,-0.43 -5.68,-0.55 -22.94,-1.42 -43.99,-3.08 -64.41,1.24 -1.39,0.43 -2.62,0.81 -3.64,1.12 -2.05,0.59 -3.27,0.85 -3.26,0.85 0,0 0.48,-1.12 1.52,-3.03 0.53,-0.95 1.17,-2.13 2.02,-3.39 0.94,-1.16 2.04,-2.47 3.32,-3.87 0.62,-0.74 1.38,-1.37 2.21,-1.97 0.85,-0.62 1.72,-1.27 2.61,-1.92 0.89,-0.71 1.94,-1.23 3.06,-1.72 1.11,-0.51 2.27,-1.02 3.48,-1.53 1.21,-0.5 2.6,-0.71 3.97,-1.07 0.7,-0.15 1.41,-0.3 2.11,-0.46 0.36,-0.08 0.72,-0.15 1.08,-0.22 0.38,-0.03 0.77,-0.06 1.14,-0.09 3.07,-0.2 6.27,-0.48 9.7,-0.03 1.71,0.18 3.39,0.24 5.06,0.57 1.68,0.34 3.34,0.68 4.96,1.03 0.81,0.17 1.61,0.35 2.42,0.52 0.77,0.19 1.5,0.39 2.25,0.6 1.49,0.4 2.97,0.82 4.41,1.25 4.89,1.44 9.47,3.03 13.5,4.72 -2.25,-2.27 -4.46,-4.57 -6.62,-6.9l-0.18 -0.21c-9.39,-10.1 -18.02,-20.77 -25.88,-31.91 -1.23,-1.74 -0.81,-4.15 0.93,-5.38 1.74,-1.22 4.15,-0.81 5.38,0.93 7.65,10.85 16.07,21.25 25.23,31.11l0.19 0.2c9.11,9.79 18.92,19.03 29.42,27.65z"></path> </g> <path class="fil4" d="M1021.52 586.62c1.33,-17.72 11.01,-30.5 25.32,-33.17 2.43,-16.9 9.3,-24.12 27.94,-30.77 2.94,20.98 20.99,33.77 23.78,62.04 7.52,76.13 -95.97,99.26 -132.27,46.86 -7.27,9.28 -35.49,27.68 -47.93,27.68 -3.37,0 -6.38,-1.2 -8.97,-3.61 -2.59,-2.41 -3.85,-4.99 -3.85,-7.76 0,-2.71 0.3,-4.82 0.84,-6.26 10.59,-8.55 23.35,-26 38.28,-52.37 6.8,-11.98 12.58,-25.16 17.39,-39.54 4.76,-14.45 7.11,-27.39 7.11,-38.88 0,-3.91 -0.73,-7.23 -2.17,-9.87 -1.5,-2.71 -2.23,-4.28 -2.23,-4.7 0,-0.42 1.63,-1.8 4.88,-4.21 3.19,-2.41 7.1,-5.78 11.62,-9.99 4.51,-4.22 9.08,-9.09 13.66,-14.63 4.57,-5.54 8.48,-12.4 11.73,-20.64 3.2,-8.25 4.82,-17.16 4.82,-26.73 0,-9.57 -3.07,-17.21 -9.33,-22.99 -6.2,-5.78 -13.12,-8.67 -20.64,-8.67 -7.53,0 -13.25,2.41 -17.16,7.29 -3.97,4.81 -5.9,10.41 -5.9,16.91 0,14.92 13.93,24.1 25.96,29.61 -1.41,10.49 -11.15,16.71 -20.3,19.75 -1.44,11.13 -8.97,28.55 -21.45,30.38 -5.38,-42.7 -27.16,-35.09 -26.68,-75.59 0.65,-55.33 89.79,-68.88 126.43,-25.21 7.18,-8.22 37,-24.08 48.46,-24.08 3.37,0 6.38,1.2 8.97,3.61 2.58,2.41 3.91,4.99 3.91,7.76 0,2.77 -0.3,4.82 -0.9,6.26 -10.48,7.89 -23.12,24.26 -37.92,49.18 -6.68,11.43 -12.4,24.01 -17.1,37.74 -4.69,13.78 -7.04,26.3 -7.04,37.55 0,4.16 1.33,8.91 4.03,14.27 0,0.6 -2.88,3.37 -8.72,8.3 -5.84,4.94 -10.78,9.87 -14.81,14.75 -4.03,4.88 -7.82,10.05 -11.37,15.59 -8.13,13.06 -12.16,27.63 -12.16,43.76 0,9.99 3.25,17.69 9.69,23.05 6.44,5.42 13.78,8.12 21.97,8.12 8.12,0 14.38,-2.28 18.77,-6.98 4.34,-4.63 6.51,-10.47 6.51,-17.51 0,-20 -14.25,-30.78 -33.17,-26.3zm-803.39 46.46c-6.2,12.33 -15.71,18.47 -28.41,18.47 -6.68,0 -11.26,-0.78 -13.72,-2.46 -3.8,-2.77 -6.2,-5.42 -7.23,-7.89 7.41,-8.97 11.08,-20.28 11.08,-34.07 0,-11.85 -0.78,-20.58 -2.35,-26.06 -1.62,-5.53 -3.37,-11.67 -5.3,-18.36 -1.92,-6.68 -3.73,-13.24 -5.35,-19.56l-1.27 0 -40.38 0.18c-0.73,2.89 -1.93,7.83 -3.68,14.63 -1.8,6.8 -3,11.98 -3.73,15.53 -2.34,10.35 -3.55,20.46 -3.55,30.45 0,15.17 4.34,27.57 12.88,37.26 -0.12,0.24 -0.24,0.54 -0.36,1.03 -0.06,0.48 -0.54,1.32 -1.32,2.58 -0.73,1.21 -1.57,2.29 -2.53,3.25 -2.59,2.35 -5.72,3.49 -9.45,3.49 -3.67,0 -6.92,-0.6 -9.69,-1.92 -2.77,-1.27 -4.88,-2.83 -6.44,-4.58 -3.49,-3.73 -5.9,-7.76 -7.22,-11.97 -4.82,4.81 -10.72,9.08 -17.64,12.88 -6.92,3.73 -12.94,5.59 -18,5.59 -8.18,0 -12.33,-3.01 -12.33,-9.15l0 -1.2c9.63,-7.64 16.97,-15.83 22.03,-24.44 5.05,-8.66 9.93,-21.36 14.68,-38.16l9.15 -32.32c-7.16,1.81 -13.6,4.88 -19.2,9.21 -1.2,0 -2.29,-0.9 -3.31,-2.65 -0.96,-1.74 -1.45,-3.91 -1.45,-6.38 0,-5.47 4.1,-10.35 12.34,-14.62 -2.16,-0.72 -4.27,-2.17 -6.38,-4.4 -3.97,-3.91 -5.96,-7.1 -5.96,-9.63 0,-2.52 0.13,-4.39 0.49,-5.59 0.36,-1.27 0.72,-2.17 1.08,-2.77 0.9,-1.15 1.99,-1.87 3.19,-2.11 7.28,5.66 16.31,9.21 27.14,10.78l20.47 -72.29c4.57,-16.25 6.86,-29.19 6.86,-38.82 0,-9.63 -3.13,-19.32 -9.33,-29.07l0 -0.73c0,-6.62 6.62,-9.87 19.92,-9.87 6.81,0 14.21,4.34 22.21,13.06 1.75,1.99 3.55,4.4 5.48,7.23 3.37,-8.37 10.11,-14.45 20.1,-18.18 4.1,-1.45 8.13,-2.11 12.16,-2.11 3.97,0 7.04,0.84 9.15,2.65 2.11,1.75 3.67,4.39 4.57,7.95 -3.37,9.87 -5.11,21.12 -5.11,33.76 0,12.64 1.08,23.9 3.19,33.77 2.11,9.87 4.81,19.14 8,27.74 3.25,8.67 6.32,14.99 9.21,18.96 2.89,3.98 5.54,7.17 8.01,9.45 2.46,2.29 4.45,3.98 5.9,5.12 1.5,1.08 2.22,2.17 2.22,3.25 0,1.08 -0.48,2.23 -1.44,3.43 -0.9,1.26 -1.99,2.53 -3.13,3.79 -3.07,3.55 -4.64,10.6 -4.64,21.19 0,19.86 4.1,39.6 12.28,59.28 8.19,19.75 17.76,34.19 28.83,43.52l0 0.66c0,6.5 -5.84,9.69 -17.57,9.69 -11.68,0 -23.41,-6.14 -35.15,-18.47zm-56.94 -113.4c-9.51,-38.58 -14.57,-59.47 -15.17,-62.78 -4.93,19.99 -9.99,40.93 -15.17,62.78 5.96,0 12.46,0 19.39,0l10.95 0zm164.32 113.4c-0.61,1.14 -2.05,3.06 -4.34,5.71 -2.29,2.65 -4.51,4.82 -6.62,6.44 -5.72,4.22 -11.56,6.32 -17.33,6.32 -5.84,0 -10.3,-0.84 -13.37,-2.58 -3.01,-1.81 -4.81,-3.56 -5.23,-5.3l-0.72 -2.65c7.76,-7.1 13.24,-15.83 16.49,-26.3 3.19,-10.47 4.81,-22.51 4.81,-36.24 0,-13.66 -0.6,-24.67 -1.92,-32.86 -1.27,-8.24 -2.89,-14.38 -4.76,-18.36 -1.86,-3.97 -3.79,-7.16 -5.72,-9.51 -1.92,-2.34 -3.55,-4.09 -4.87,-5.23 -1.27,-1.09 -1.93,-2.23 -1.93,-3.31 0,-1.15 0.66,-2.29 1.93,-3.55 1.32,-1.21 2.95,-3.01 4.87,-5.36 1.93,-2.35 3.86,-5.66 5.72,-9.87 4.46,-9.87 6.68,-25.04 6.68,-45.44 0,-20.41 -1.56,-34.79 -4.63,-43.28 -3.13,-8.49 -8.67,-16.43 -16.67,-23.96 0,-4.27 3.25,-7.34 9.69,-9.38 2.58,-0.67 5.71,-1.03 9.45,-1.03 3.67,0 7.46,0.6 11.37,1.87 3.85,1.2 7.16,2.71 9.87,4.45 5.42,3.55 9.75,7.29 13.06,11.32 0.54,-1.69 2.05,-3.61 4.4,-5.84 2.34,-2.23 4.99,-4.09 7.94,-5.66 7.95,-4.09 16.98,-6.14 26.97,-6.14 9.99,0 17.45,0.18 22.45,0.54 4.99,0.3 9.99,0.97 14.92,1.81 4.94,0.9 9.39,2.11 13.43,3.55 3.97,1.45 7.76,3.37 11.25,5.72 3.55,2.35 6.56,5.05 9.03,8.12 5.24,6.56 8.37,13.61 9.21,21.13 0.9,7.52 2.11,13.18 3.61,16.85 1.56,3.73 3.01,6.38 4.45,8.07 3.86,4.21 5.78,6.62 5.78,7.28 0,0.66 -0.54,1.69 -1.74,3.07 -1.15,1.45 -2.53,3.19 -4.04,5.3 -3.91,5.54 -6.26,12.88 -7.16,22.09 -0.9,9.15 -3.85,16.73 -8.91,22.69 -5.05,6.02 -11.37,9.39 -19.02,10.05 13.85,4.63 22.94,14.44 27.33,29.49 2.35,8.55 4.27,20.53 5.78,35.75 1.56,15.29 3.01,26.67 4.45,34.07 3.13,16.55 10.47,28.53 21.85,35.81 -10.11,10.24 -23.35,15.29 -39.66,15.35 -9.09,-0.06 -16.68,-2.53 -22.76,-7.46 -6.14,-4.94 -10.53,-11.32 -13.3,-19.2 -2.77,-7.89 -4.87,-16.55 -6.38,-26 -1.44,-9.45 -2.53,-18.96 -3.19,-28.47 -0.6,-9.51 -1.44,-18.24 -2.53,-26.12 -2.58,-17.76 -8.6,-26.61 -17.99,-26.61l-23.6 0 0 54.65c0,17.28 1.39,30.58 4.22,39.97 2.83,9.33 7.94,18.05 15.35,26.18 0,4.33 -3.25,7.52 -9.7,9.51 -2.58,0.72 -5.59,1.02 -8.9,1.02 -3.37,0 -6.68,-0.6 -9.99,-1.92 -3.32,-1.27 -6.02,-2.83 -8.31,-4.58 -4.7,-3.67 -8.37,-7.64 -11.07,-11.97zm68.91 -219.93c0,-3.01 -1.68,-5.84 -5.11,-8.43 -3.38,-2.59 -7.59,-3.91 -12.58,-3.91 -5,0 -10.06,0.96 -15.17,2.83 -5.12,1.92 -7.65,3.91 -7.65,6.02l0 83.06c13.85,0 24.08,-1.57 30.64,-4.7 6.62,-3.13 9.87,-8.12 9.87,-15.05l0 -59.82zm144.63 219.93c-0.6,1.14 -2.04,3.06 -4.33,5.71 -2.29,2.65 -4.51,4.82 -6.62,6.44 -5.72,4.22 -11.56,6.32 -17.33,6.32 -5.84,0 -10.3,-0.84 -13.37,-2.58 -3.01,-1.81 -4.81,-3.56 -5.23,-5.3l-0.72 -2.65c7.76,-7.1 13.24,-15.83 16.49,-26.3 3.19,-10.47 4.81,-22.51 4.81,-36.24 0,-13.66 -0.6,-24.67 -1.92,-32.86 -1.27,-8.24 -2.89,-14.38 -4.76,-18.36 -1.86,-3.97 -3.79,-7.16 -5.72,-9.51 -1.92,-2.34 -3.55,-4.09 -4.87,-5.23 -1.27,-1.09 -1.93,-2.23 -1.93,-3.31 0,-1.15 0.66,-2.29 1.93,-3.55 1.32,-1.21 2.95,-3.01 4.87,-5.36 1.93,-2.35 3.86,-5.66 5.72,-9.87 4.46,-9.87 6.68,-25.04 6.68,-45.44 0,-20.41 -1.56,-34.79 -4.63,-43.28 -3.13,-8.49 -8.67,-16.43 -16.67,-23.96 0,-4.27 3.25,-7.34 9.69,-9.38 2.58,-0.67 5.71,-1.03 9.45,-1.03 3.67,0 7.46,0.6 11.37,1.87 3.85,1.2 7.16,2.71 9.87,4.45 5.42,3.55 9.75,7.29 13.06,11.32 0.54,-1.69 2.05,-3.61 4.4,-5.84 2.34,-2.23 4.99,-4.09 7.94,-5.66 7.95,-4.09 16.97,-6.14 26.97,-6.14 9.99,0 17.45,0.18 22.45,0.54 4.99,0.3 9.99,0.97 14.92,1.81 4.94,0.9 9.39,2.11 13.43,3.55 3.97,1.45 7.76,3.37 11.25,5.72 3.55,2.35 6.56,5.05 9.03,8.12 5.24,6.56 8.37,13.61 9.21,21.13 0.9,7.52 2.1,13.18 3.61,16.85 1.56,3.73 3.01,6.38 4.45,8.07 3.85,4.21 5.78,6.62 5.78,7.28 0,0.66 -0.54,1.69 -1.74,3.07 -1.15,1.45 -2.53,3.19 -4.04,5.3 -3.91,5.54 -6.26,12.88 -7.16,22.09 -0.9,9.15 -3.85,16.73 -8.91,22.69 -5.05,6.02 -11.37,9.39 -19.02,10.05 13.85,4.63 22.94,14.44 27.33,29.49 2.35,8.55 4.27,20.53 5.78,35.75 1.56,15.29 3.01,26.67 4.45,34.07 3.13,16.55 10.47,28.53 21.85,35.81 -10.11,10.24 -23.35,15.29 -39.66,15.35 -9.09,-0.06 -16.68,-2.53 -22.76,-7.46 -6.14,-4.94 -10.53,-11.32 -13.3,-19.2 -2.77,-7.89 -4.87,-16.55 -6.38,-26 -1.44,-9.45 -2.53,-18.96 -3.19,-28.47 -0.6,-9.51 -1.44,-18.24 -2.53,-26.12 -2.58,-17.76 -8.6,-26.61 -17.99,-26.61l-23.6 0 0 54.65c0,17.28 1.39,30.58 4.22,39.97 2.83,9.33 7.94,18.05 15.35,26.18 0,4.33 -3.26,7.52 -9.7,9.51 -2.58,0.72 -5.59,1.02 -8.9,1.02 -3.37,0 -6.68,-0.6 -9.99,-1.92 -3.32,-1.27 -6.02,-2.83 -8.31,-4.58 -4.7,-3.67 -8.37,-7.64 -11.08,-11.97zm68.92 -219.93c0,-3.01 -1.69,-5.84 -5.12,-8.43 -3.37,-2.59 -7.58,-3.91 -12.57,-3.91 -5,0 -10.06,0.96 -15.17,2.83 -5.12,1.92 -7.65,3.91 -7.65,6.02l0 83.06c13.85,0 24.08,-1.57 30.64,-4.7 6.62,-3.13 9.87,-8.12 9.87,-15.05l0 -59.82zm174.25 152.03c0,0 0,4.4 0,13.24 0,15.29 0.6,24.2 1.86,26.79 1.21,2.59 2.23,4.75 3.07,6.5 0.85,1.8 1.81,3.07 2.89,3.79 1.15,0.78 2.47,1.63 3.97,2.59 4.16,2.47 9.94,3.01 17.46,1.56 5.78,-1.02 9.75,-3.85 11.86,-8.42 2.94,-6.26 4.51,-13 4.75,-20.29 0.24,-7.28 0.36,-12.15 0.36,-14.5l0 -9.87c0,-21.97 -3.25,-38.16 -9.69,-48.64 -1.44,-2.34 -2.65,-4.03 -3.73,-5.05 -1.08,-0.96 -1.57,-1.75 -1.57,-2.35 0,-0.6 0.79,-1.8 2.35,-3.55 1.63,-1.75 3.31,-4.09 5.12,-6.98 1.8,-2.83 3.55,-8.61 5.11,-17.16 1.57,-8.6 2.41,-17.51 2.41,-26.84 0,-9.27 -0.06,-15.41 -0.12,-18.48 -0.06,-3.07 -0.18,-6.74 -0.36,-10.95 -0.18,-4.21 -0.42,-7.4 -0.84,-9.51 -0.42,-2.11 -1.03,-4.52 -1.81,-7.22 -0.72,-2.71 -1.68,-4.64 -2.77,-5.84 -1.14,-1.15 -2.52,-2.35 -4.15,-3.49 -2.59,-2.17 -6.38,-3.19 -11.37,-3.19 -5,0 -8.85,0.36 -11.5,1.14 -2.65,0.78 -4.82,2.23 -6.5,4.51 -1.69,2.23 -3.01,4.4 -3.97,6.57 -0.97,2.22 -1.63,5.77 -2.11,10.71 -0.6,6.08 -0.9,15.35 -0.9,27.69 0,12.33 0.48,22.33 1.5,29.97 1.02,7.64 2.23,13.24 3.73,16.91 1.45,3.67 2.89,6.5 4.4,8.67 1.44,2.11 2.71,3.67 3.67,4.63 1.02,1.03 1.5,1.81 1.5,2.47 0,0.66 -0.48,1.57 -1.5,2.77 -0.96,1.14 -2.23,2.95 -3.67,5.42 -1.51,2.46 -2.89,5.59 -4.34,9.39 -3.43,9.03 -5.11,21.36 -5.11,37.01zm111.83 -39.06c-2.29,4.03 -3.98,9.69 -5.12,16.91 -1.2,7.23 -1.8,17.46 -1.8,30.7 0,13.24 -1.75,25.7 -5.3,37.5 -3.49,11.73 -8.85,21.12 -16.01,28.11 -7.16,6.98 -15.71,12.03 -25.58,15.16 -9.87,3.13 -21.55,4.64 -35.09,4.64 -13.54,0 -25.22,-1.51 -35.09,-4.64 -9.87,-3.13 -18.42,-8.18 -25.58,-15.29 -14.21,-13.84 -21.31,-37.43 -21.31,-70.66 0,-28.1 -6.56,-46.7 -19.62,-55.73 -1.5,-1.08 -2.29,-1.87 -2.29,-2.29 0,-0.48 0.79,-1.2 2.29,-2.23 1.57,-1.02 3.37,-2.58 5.48,-4.75 2.1,-2.17 4.27,-5.06 6.38,-8.73 5.17,-8.91 7.76,-21.3 7.76,-37.01 0,-15.77 0.78,-28.35 2.35,-37.86 1.62,-9.45 4.03,-17.46 7.34,-23.96 3.25,-6.56 7.1,-11.98 11.56,-16.31 4.39,-4.33 9.81,-7.76 16.31,-10.17 6.44,-2.41 13.18,-4.03 20.16,-5 6.98,-0.96 15.17,-1.44 24.44,-1.44 9.27,0 17.39,0.48 24.32,1.44 6.92,0.97 13.66,2.59 20.1,5 6.5,2.41 11.86,5.84 16.25,10.17 4.33,4.33 8.12,9.75 11.44,16.19 6.5,12.94 9.69,31.96 9.69,57 0,27.39 5.77,45.86 17.27,55.55 1.44,1.03 2.17,1.75 2.17,2.17 0,0.42 -0.85,1.27 -2.41,2.47 -1.57,1.26 -3.13,2.71 -4.58,4.39 -1.5,1.75 -3.31,4.64 -5.53,8.67z"></path> </g> </g> </svg> 